<svg width="75" height="75" viewBox="0 0 75 75" fill="none" xmlns="http://www.w3.org/2000/svg">
<path fill-rule="evenodd" clip-rule="evenodd" d="M62.1771 45.5062C69.1932 45.5062 74.9997 51.3083 74.9997 58.5608C74.9997 65.5717 69.1932 71.3737 62.1771 71.3737C55.1609 71.3737 49.3545 65.5717 49.3545 58.5608C49.3545 51.3083 55.1609 45.5062 62.1771 45.5062ZM68.4674 60.9784C68.7093 63.8794 66.29 65.0882 63.8706 65.3299C63.8706 66.0552 63.8706 67.2639 62.6609 67.2639C61.4513 67.2639 61.4513 66.0552 61.4513 65.3299C59.9997 65.3299 58.3061 64.6046 57.5803 63.3959C55.6448 60.9784 58.3061 59.2861 59.5158 61.4619C61.2093 64.1211 65.0803 63.6376 65.0803 61.7036C65.0803 58.5608 57.0964 60.4949 57.0964 55.6598C57.0964 53.2423 59.2738 51.7918 61.4513 51.7918C61.4513 50.8248 61.4513 49.616 62.6609 49.616C63.8706 49.616 63.8706 51.0665 63.8706 51.7918C65.0803 52.0335 66.7738 52.517 67.4997 53.7258C68.7093 55.6598 66.5319 56.8686 65.3222 55.9016C64.1126 54.6928 64.1126 53.9675 62.1771 53.9675C61.4513 53.9675 60.2416 54.2093 60.2416 55.1763C59.9997 57.5938 67.9835 56.6268 68.4674 60.9784Z" fill="#FECA55"/>
<path fill-rule="evenodd" clip-rule="evenodd" d="M33.6286 0.29846C37.4996 0.0567074 40.8867 2.47423 41.6125 5.61702C48.1448 5.85877 48.1448 15.5289 45.9673 20.6057C51.048 19.8804 47.419 31.4845 44.5157 31.4845C43.3061 38.7371 37.9835 44.2974 31.4512 44.2974C24.919 44.2974 19.3544 38.7371 18.1448 31.4845C15.2415 31.4845 11.8544 20.1222 16.4512 20.6057C14.0319 14.5619 16.2093 6.10052 21.048 3.19949C17.419 -2.60257 20.0802 1.50722 33.6286 0.29846Z" fill="#22097B"/>
<path fill-rule="evenodd" clip-rule="evenodd" d="M0 62.1871C0.725806 59.2861 1.93548 53.2423 5.08064 51.3083C8.95161 48.4072 14.0323 46.4732 19.5968 45.5062L27.0968 66.7804L29.7581 59.5278C28.3064 58.0773 27.3387 55.1763 27.3387 53.2423C27.3387 49.1325 35.5645 49.1325 35.5645 53.2423C35.5645 55.1763 34.5968 58.0773 33.1452 59.5278L35.5645 66.7804L43.3064 45.5062C45.7258 45.9897 48.1452 46.715 50.5645 47.4402C47.6613 50.3412 46.2097 54.2093 46.2097 58.5608C46.2097 63.1541 48.1452 67.2639 51.2903 70.4067C45.2419 73.3077 38.4677 75 31.4516 75C19.1129 75 8.22581 70.165 0 62.1871Z" fill="#22097B"/>
</svg>
