<svg width="75" height="75" viewBox="0 0 75 75" fill="none" xmlns="http://www.w3.org/2000/svg">
<path fill-rule="evenodd" clip-rule="evenodd" d="M55.2989 4.83402C50.7778 1.87134 44.4486 0 37.4999 0C30.5513 0 24.2691 1.87024 19.701 4.83402C15.1312 7.82751 12.3242 11.9442 12.3242 16.4977C12.3242 21.082 15.1312 25.1977 19.701 28.1922C24.2691 31.1538 30.5513 32.9944 37.4999 32.9944C44.4486 32.9944 50.7761 31.1538 55.2989 28.1922C59.867 25.1977 62.6757 21.0512 62.6757 16.4977C62.6757 11.9442 59.867 7.82751 55.3476 4.83402H55.2989Z" fill="#22097B"/>
<path fill-rule="evenodd" clip-rule="evenodd" d="M16.9411 40.2597H15.9422C11.5638 40.2597 7.56648 41.4446 4.71079 43.3478C1.8081 45.2191 0 47.8386 0 50.7067V75H75V50.7067C75 47.8386 73.1919 45.2191 70.3362 43.3478C67.4335 41.4457 63.4362 40.2597 59.0578 40.2597H58.0573C53.8703 46.6845 49.2535 53.3272 45.4946 58.6904C42.926 62.432 40.7368 65.5201 39.4038 67.5784L37.5 70.5092L35.5962 67.5784C34.2632 65.5201 32.1227 62.432 29.5037 58.6904C25.7935 53.3272 21.1297 46.6537 16.9411 40.2597ZM51.8254 59.5331C50.6352 59.5331 49.7319 58.9093 49.7319 58.1612C49.7319 57.412 50.6352 56.7882 51.8254 56.7882H68.3384C69.5287 56.7882 70.4319 57.412 70.4319 58.1612C70.4319 58.9093 69.5287 59.5331 68.3384 59.5331H51.8254Z" fill="#22097B"/>
<path fill-rule="evenodd" clip-rule="evenodd" d="M38.0237 62.9325L38.0707 62.839L38.1194 62.7455L38.2134 62.652L39.261 61.0612L42.7361 55.9158L41.4031 47.4326L40.1642 39.8241H37.4999H34.8356L33.6453 47.4326L32.314 55.9158L35.7405 61.0612L36.6907 62.4947L36.7864 62.5893L37.4999 63.6487L38.0237 62.9325Z" fill="#22097B"/>
</svg>
