<svg width="75" height="75" viewBox="0 0 75 75" fill="none" xmlns="http://www.w3.org/2000/svg">
<path d="M12.9312 38.7931H7.75879V43.9655H12.9312V38.7931Z" fill="#22097B"/>
<path d="M5.17241 38.7931H0V43.9655H5.17241V38.7931Z" fill="#22097B"/>
<path d="M12.9312 69.8276H7.75879V75H12.9312V69.8276Z" fill="#22097B"/>
<path d="M5.17241 69.8276H0V75H5.17241V69.8276Z" fill="#22097B"/>
<path d="M20.6895 69.8276H15.5171V75H20.6895V69.8276Z" fill="#22097B"/>
<path d="M20.6895 38.7931H15.5171V43.9655H20.6895V38.7931Z" fill="#22097B"/>
<path d="M0 67.2414H20.6897V46.5517H0V67.2414ZM2.58621 49.4948L15.5379 56.8966L2.58621 64.2983V49.4948Z" fill="#22097B"/>
<path d="M43.9654 38.7931H38.793V43.9655H43.9654V38.7931Z" fill="#22097B"/>
<path d="M28.4483 69.8276H23.2759V75H28.4483V69.8276Z" fill="#22097B"/>
<path d="M25.8623 36.2069H49.1382V32.3276C49.1382 25.9099 43.9179 20.6897 37.5002 20.6897C31.0826 20.6897 25.8623 25.9099 25.8623 32.3276V36.2069Z" fill="#22097B"/>
<path d="M23.2758 32.3276C23.2758 28.4496 24.8392 24.9336 27.3646 22.3642C25.4909 18.247 21.3672 15.5172 16.8103 15.5172C10.3926 15.5172 5.17236 20.7375 5.17236 27.1552V36.2069H23.2758V32.3276Z" fill="#22097B"/>
<path d="M58.1896 12.931C61.7604 12.931 64.6552 10.0363 64.6552 6.46552C64.6552 2.89471 61.7604 0 58.1896 0C54.6188 0 51.7241 2.89471 51.7241 6.46552C51.7241 10.0363 54.6188 12.931 58.1896 12.931Z" fill="#22097B"/>
<path d="M37.5002 18.1035C41.071 18.1035 43.9657 15.2087 43.9657 11.6379C43.9657 8.06713 41.071 5.17242 37.5002 5.17242C33.9294 5.17242 31.0347 8.06713 31.0347 11.6379C31.0347 15.2087 33.9294 18.1035 37.5002 18.1035Z" fill="#22097B"/>
<path d="M16.8102 12.931C20.3811 12.931 23.2758 10.0363 23.2758 6.46552C23.2758 2.89471 20.3811 0 16.8102 0C13.2394 0 10.3447 2.89471 10.3447 6.46552C10.3447 10.0363 13.2394 12.931 16.8102 12.931Z" fill="#22097B"/>
<path d="M28.4483 38.7931H23.2759V43.9655H28.4483V38.7931Z" fill="#22097B"/>
<path d="M36.2071 38.7931H31.0347V43.9655H36.2071V38.7931Z" fill="#22097B"/>
<path d="M5.17236 53.9534V59.8396L10.3241 56.8965L5.17236 53.9534Z" fill="#22097B"/>
<path d="M75.0001 69.8276H69.8276V75H75.0001V69.8276Z" fill="#22097B"/>
<path d="M67.2413 69.8276H62.0688V75H67.2413V69.8276Z" fill="#22097B"/>
<path d="M59.483 69.8276H54.3105V75H59.483V69.8276Z" fill="#22097B"/>
<path d="M59.483 38.7931H54.3105V43.9655H59.483V38.7931Z" fill="#22097B"/>
<path d="M62.0688 53.9534V59.8396L67.2206 56.8965L62.0688 53.9534Z" fill="#22097B"/>
<path d="M75.0001 38.7931H69.8276V43.9655H75.0001V38.7931Z" fill="#22097B"/>
<path d="M67.2413 38.7931H62.0688V43.9655H67.2413V38.7931Z" fill="#22097B"/>
<path d="M54.3105 67.2414H75.0002V46.5517H54.3105V67.2414ZM59.483 49.4948L72.4347 56.8966L59.483 64.2983V49.4948Z" fill="#22097B"/>
<path d="M33.6206 53.9534V59.8396L38.7723 56.8965L33.6206 53.9534Z" fill="#22097B"/>
<path d="M69.8275 36.2069V27.1552C69.8275 20.7375 64.6072 15.5172 58.1896 15.5172C53.6327 15.5172 49.509 18.247 47.6353 22.3642C50.1607 24.9336 51.724 28.4496 51.724 32.3276V36.2069H69.8275Z" fill="#22097B"/>
<path d="M51.7242 69.8276H46.5518V75H51.7242V69.8276Z" fill="#22097B"/>
<path d="M43.9654 69.8276H38.793V75H43.9654V69.8276Z" fill="#22097B"/>
<path d="M36.2071 69.8276H31.0347V75H36.2071V69.8276Z" fill="#22097B"/>
<path d="M51.7242 38.7931H46.5518V43.9655H51.7242V38.7931Z" fill="#22097B"/>
<path d="M23.2759 67.2414H51.7242V46.5517H23.2759V67.2414ZM31.0345 49.4948L43.9862 56.8966L31.0345 64.2983V49.4948Z" fill="#22097B"/>
</svg>
