<svg width="73" height="50" viewBox="0 0 73 73" fill="none" xmlns="http://www.w3.org/2000/svg">
<path d="M36.2858 72.6338C56.3258 72.6338 72.5715 56.3742 72.5715 36.3169C72.5715 16.2596 56.3258 0 36.2858 0C16.2457 0 0 16.2596 0 36.3169C0 56.3742 16.2457 72.6338 36.2858 72.6338Z" fill="#9299A0"/>
<path d="M51.3538 33.2669H39.0167V20.9192C39.0167 20.1486 38.7109 19.4096 38.1664 18.8647C37.622 18.3198 36.8836 18.0137 36.1137 18.0137C35.3437 18.0137 34.6053 18.3198 34.0609 18.8647C33.5165 19.4096 33.2106 20.1486 33.2106 20.9192V33.2669H20.8735C20.1036 33.2669 19.3652 33.573 18.8207 34.1179C18.2763 34.6628 17.9705 35.4019 17.9705 36.1725C17.9705 36.943 18.2763 37.6821 18.8207 38.227C19.3652 38.7719 20.1036 39.078 20.8735 39.078H33.2106V51.4257C33.2106 52.1963 33.5165 52.9353 34.0609 53.4802C34.6053 54.0251 35.3437 54.3312 36.1137 54.3312C36.8836 54.3312 37.622 54.0251 38.1664 53.4802C38.7109 52.9353 39.0167 52.1963 39.0167 51.4257V39.078H51.3538C52.1238 39.078 52.8622 38.7719 53.4066 38.227C53.951 37.6821 54.2569 36.943 54.2569 36.1725C54.2569 35.4019 53.951 34.6628 53.4066 34.1179C52.8622 33.573 52.1238 33.2669 51.3538 33.2669Z" fill="white"/>
</svg>
