<svg width="1280" height="458" viewBox="0 0 1280 458" fill="none" xmlns="http://www.w3.org/2000/svg">
<rect width="1280" height="458" fill="#131333"/>
<g opacity="0.1">
<path d="M94.0001 69.9067C87.9864 69.9067 83.0933 65.0129 83.0933 58.9998C83.0933 52.9861 87.9864 48.093 94.0001 48.093C100.013 48.093 104.907 52.9861 104.907 58.9998C104.907 65.0129 100.013 69.9067 94.0001 69.9067Z" fill="#F8F7FD"/>
<path d="M94 83C80.7666 83 70 72.234 70 59C70 45.766 80.7666 35 94 35C107.233 35 118 45.7666 118 59C118 72.2334 107.233 83 94 83ZM94 38.1162C82.4849 38.1162 73.1162 47.4849 73.1162 59C73.1162 70.5157 82.4849 79.8838 94 79.8838C105.516 79.8838 114.884 70.5157 114.884 59C114.884 47.4849 105.516 38.1162 94 38.1162Z" fill="#F8F7FD"/>
<path d="M537 386.907C530.986 386.907 526.093 382.013 526.093 376C526.093 369.986 530.986 365.093 537 365.093C543.013 365.093 547.907 369.986 547.907 376C547.907 382.013 543.013 386.907 537 386.907Z" fill="#F8F7FD"/>
<path d="M537 400C523.767 400 513 389.234 513 376C513 362.766 523.767 352 537 352C550.233 352 561 362.767 561 376C561 389.233 550.233 400 537 400ZM537 355.116C525.485 355.116 516.116 364.485 516.116 376C516.116 387.516 525.485 396.884 537 396.884C548.516 396.884 557.884 387.516 557.884 376C557.884 364.485 548.516 355.116 537 355.116Z" fill="#F8F7FD"/>
<path d="M1167 386.907C1160.99 386.907 1156.09 382.013 1156.09 376C1156.09 369.986 1160.99 365.093 1167 365.093C1173.01 365.093 1177.91 369.986 1177.91 376C1177.91 382.013 1173.01 386.907 1167 386.907Z" fill="#F8F7FD"/>
<path d="M1167 400C1153.77 400 1143 389.234 1143 376C1143 362.766 1153.77 352 1167 352C1180.23 352 1191 362.767 1191 376C1191 389.233 1180.23 400 1167 400ZM1167 355.116C1155.48 355.116 1146.12 364.485 1146.12 376C1146.12 387.516 1155.48 396.884 1167 396.884C1178.52 396.884 1187.88 387.516 1187.88 376C1187.88 364.485 1178.52 355.116 1167 355.116Z" fill="#F8F7FD"/>
<path d="M76 229C62.7648 229 52 239.765 52 253C52 266.235 62.7648 277 76 277C89.2352 277 100 266.235 100 253C100 239.765 89.2352 229 76 229ZM76 273.8C64.5312 273.8 55.2 264.469 55.2 253C55.2 241.531 64.5312 232.2 76 232.2C87.4688 232.2 96.8 241.531 96.8 253C96.8 264.469 87.4688 273.8 76 273.8Z" fill="#F8F7FD"/>
<path d="M81.6447 252.232C80.4415 251.746 78.8671 251.247 76.9215 250.735C75.4111 250.351 74.2271 250.005 73.3695 249.698C72.5119 249.391 71.7951 248.968 71.2191 248.431C70.6431 247.893 70.3551 247.202 70.3551 246.357C70.3551 245.231 70.8607 244.367 71.8719 243.765C72.8831 243.164 74.2975 242.863 76.1151 242.863C77.7535 242.863 79.0719 243.196 80.0703 243.861C81.0687 244.527 81.5679 245.474 81.5679 246.703V247.279H85.3311V246.818C85.3311 244.463 84.5055 242.645 82.8543 241.365C81.5167 240.328 79.7503 239.733 77.5999 239.535V236.997C77.5999 236.114 76.8831 235.397 75.9999 235.397C75.1167 235.397 74.3999 236.114 74.3999 236.997V239.535C72.2911 239.733 70.5343 240.303 69.1647 241.285C67.4495 242.514 66.5919 244.396 66.5919 246.93C66.5919 248.492 67.0015 249.752 67.8207 250.712C68.6399 251.672 69.6255 252.383 70.7775 252.844C71.9295 253.304 73.4655 253.794 75.3855 254.306C76.9471 254.716 78.1823 255.087 79.0911 255.42C79.9999 255.752 80.7551 256.22 81.3567 256.821C81.9583 257.423 82.2591 258.21 82.2591 259.183C82.2591 260.412 81.7023 261.378 80.5887 262.082C79.4751 262.786 77.9583 263.138 76.0383 263.138C74.0671 263.138 72.5247 262.773 71.4111 262.044C70.2975 261.314 69.7407 260.207 69.7407 258.722L69.7791 257.916H66.0159L65.9775 258.684C65.9775 261.244 66.8543 263.196 68.6079 264.54C70.0511 265.647 72.0095 266.271 74.4159 266.466C74.4127 266.498 74.3967 266.524 74.3967 266.556L74.3999 269C74.3999 269.884 75.1199 270.6 75.9999 270.6C75.9999 270.6 75.9999 270.6 76.0031 270.6C76.8831 270.6 77.5999 269.88 77.5999 269L77.5967 266.556C77.5967 266.527 77.5807 266.501 77.5807 266.469C79.9903 266.277 81.9455 265.666 83.3919 264.578C85.1455 263.26 86.0223 261.167 86.0223 258.3C86.0223 256.687 85.5935 255.394 84.7359 254.421C83.8783 253.448 82.8479 252.719 81.6447 252.232Z" fill="#F8F7FD"/>
<path d="M489 37C475.765 37 465 47.7648 465 61C465 74.2352 475.765 85 489 85C502.235 85 513 74.2352 513 61C513 47.7648 502.235 37 489 37ZM489 81.8C477.531 81.8 468.2 72.4688 468.2 61C468.2 49.5312 477.531 40.2 489 40.2C500.469 40.2 509.8 49.5312 509.8 61C509.8 72.4688 500.469 81.8 489 81.8Z" fill="#F8F7FD"/>
<path d="M494.645 60.2324C493.442 59.746 491.867 59.2468 489.922 58.7348C488.411 58.3508 487.227 58.0052 486.37 57.698C485.512 57.3908 484.795 56.9684 484.219 56.4308C483.643 55.8932 483.355 55.202 483.355 54.3572C483.355 53.2308 483.861 52.3668 484.872 51.7652C485.883 51.1636 487.298 50.8628 489.115 50.8628C490.754 50.8628 492.072 51.1956 493.07 51.8612C494.069 52.5268 494.568 53.474 494.568 54.7028V55.2788H498.331V54.818C498.331 52.4628 497.506 50.6452 495.854 49.3652C494.517 48.3284 492.75 47.7332 490.6 47.5348V44.9972C490.6 44.114 489.883 43.3972 489 43.3972C488.117 43.3972 487.4 44.114 487.4 44.9972V47.5348C485.291 47.7332 483.534 48.3028 482.165 49.2852C480.45 50.514 479.592 52.3956 479.592 54.93C479.592 56.4916 480.002 57.7524 480.821 58.7124C481.64 59.6724 482.626 60.3828 483.778 60.8436C484.93 61.3044 486.466 61.794 488.386 62.306C489.947 62.7156 491.182 63.0868 492.091 63.4196C493 63.7524 493.755 64.2196 494.357 64.8212C494.958 65.4228 495.259 66.21 495.259 67.1828C495.259 68.4116 494.702 69.378 493.589 70.082C492.475 70.786 490.958 71.138 489.038 71.138C487.067 71.138 485.525 70.7732 484.411 70.0436C483.298 69.314 482.741 68.2068 482.741 66.722L482.779 65.9156H479.016L478.978 66.6836C478.978 69.2436 479.854 71.1956 481.608 72.5396C483.051 73.6468 485.01 74.2708 487.416 74.466C487.413 74.498 487.397 74.5236 487.397 74.5556L487.4 77.0004C487.4 77.8836 488.12 78.6004 489 78.6004C489 78.6004 489 78.6004 489.003 78.6004C489.883 78.6004 490.6 77.8804 490.6 77.0004L490.597 74.5556C490.597 74.5268 490.581 74.5012 490.581 74.4692C492.99 74.2772 494.946 73.666 496.392 72.578C498.146 71.2596 499.022 69.1668 499.022 66.2996C499.022 64.6868 498.594 63.394 497.736 62.4212C496.878 61.4484 495.848 60.7188 494.645 60.2324Z" fill="#F8F7FD"/>
<path d="M990 51C976.765 51 966 61.7648 966 75C966 88.2352 976.765 99 990 99C1003.24 99 1014 88.2352 1014 75C1014 61.7648 1003.24 51 990 51ZM990 95.8C978.531 95.8 969.2 86.4688 969.2 75C969.2 63.5312 978.531 54.2 990 54.2C1001.47 54.2 1010.8 63.5312 1010.8 75C1010.8 86.4688 1001.47 95.8 990 95.8Z" fill="#F8F7FD"/>
<path d="M995.645 74.2324C994.442 73.746 992.867 73.2468 990.922 72.7348C989.411 72.3508 988.227 72.0052 987.37 71.698C986.512 71.3908 985.795 70.9684 985.219 70.4308C984.643 69.8932 984.355 69.202 984.355 68.3572C984.355 67.2308 984.861 66.3668 985.872 65.7652C986.883 65.1636 988.298 64.8628 990.115 64.8628C991.754 64.8628 993.072 65.1956 994.07 65.8612C995.069 66.5268 995.568 67.474 995.568 68.7028V69.2788H999.331V68.818C999.331 66.4628 998.506 64.6452 996.854 63.3652C995.517 62.3284 993.75 61.7332 991.6 61.5348V58.9972C991.6 58.114 990.883 57.3972 990 57.3972C989.117 57.3972 988.4 58.114 988.4 58.9972V61.5348C986.291 61.7332 984.534 62.3028 983.165 63.2852C981.45 64.514 980.592 66.3956 980.592 68.93C980.592 70.4916 981.002 71.7524 981.821 72.7124C982.64 73.6724 983.626 74.3828 984.778 74.8436C985.93 75.3044 987.466 75.794 989.386 76.306C990.947 76.7156 992.182 77.0868 993.091 77.4196C994 77.7524 994.755 78.2196 995.357 78.8212C995.958 79.4228 996.259 80.21 996.259 81.1828C996.259 82.4116 995.702 83.378 994.589 84.082C993.475 84.786 991.958 85.138 990.038 85.138C988.067 85.138 986.525 84.7732 985.411 84.0436C984.298 83.314 983.741 82.2068 983.741 80.722L983.779 79.9156H980.016L979.978 80.6836C979.978 83.2436 980.854 85.1956 982.608 86.5396C984.051 87.6468 986.01 88.2708 988.416 88.466C988.413 88.498 988.397 88.5236 988.397 88.5556L988.4 91.0004C988.4 91.8836 989.12 92.6004 990 92.6004C990 92.6004 990 92.6004 990.003 92.6004C990.883 92.6004 991.6 91.8804 991.6 91.0004L991.597 88.5556C991.597 88.5268 991.581 88.5012 991.581 88.4692C993.99 88.2772 995.946 87.666 997.392 86.578C999.146 85.2596 1000.02 83.1668 1000.02 80.2996C1000.02 78.6868 999.594 77.394 998.736 76.4212C997.878 75.4484 996.848 74.7188 995.645 74.2324Z" fill="#F8F7FD"/>
<path d="M1211 38C1197.76 38 1187 48.7648 1187 62C1187 75.2352 1197.76 86 1211 86C1224.24 86 1235 75.2352 1235 62C1235 48.7648 1224.24 38 1211 38ZM1211 82.8C1199.53 82.8 1190.2 73.4688 1190.2 62C1190.2 50.5312 1199.53 41.2 1211 41.2C1222.47 41.2 1231.8 50.5312 1231.8 62C1231.8 73.4688 1222.47 82.8 1211 82.8Z" fill="#F8F7FD"/>
<path d="M1216.64 61.2324C1215.44 60.746 1213.87 60.2468 1211.92 59.7348C1210.41 59.3508 1209.23 59.0052 1208.37 58.698C1207.51 58.3908 1206.8 57.9684 1206.22 57.4308C1205.64 56.8932 1205.36 56.202 1205.36 55.3572C1205.36 54.2308 1205.86 53.3668 1206.87 52.7652C1207.88 52.1636 1209.3 51.8628 1211.12 51.8628C1212.75 51.8628 1214.07 52.1956 1215.07 52.8612C1216.07 53.5268 1216.57 54.474 1216.57 55.7028V56.2788H1220.33V55.818C1220.33 53.4628 1219.51 51.6452 1217.85 50.3652C1216.52 49.3284 1214.75 48.7332 1212.6 48.5348V45.9972C1212.6 45.114 1211.88 44.3972 1211 44.3972C1210.12 44.3972 1209.4 45.114 1209.4 45.9972V48.5348C1207.29 48.7332 1205.53 49.3028 1204.16 50.2852C1202.45 51.514 1201.59 53.3956 1201.59 55.93C1201.59 57.4916 1202 58.7524 1202.82 59.7124C1203.64 60.6724 1204.63 61.3828 1205.78 61.8436C1206.93 62.3044 1208.47 62.794 1210.39 63.306C1211.95 63.7156 1213.18 64.0868 1214.09 64.4196C1215 64.7524 1215.76 65.2196 1216.36 65.8212C1216.96 66.4228 1217.26 67.21 1217.26 68.1828C1217.26 69.4116 1216.7 70.378 1215.59 71.082C1214.48 71.786 1212.96 72.138 1211.04 72.138C1209.07 72.138 1207.52 71.7732 1206.41 71.0436C1205.3 70.314 1204.74 69.2068 1204.74 67.722L1204.78 66.9156H1201.02L1200.98 67.6836C1200.98 70.2436 1201.85 72.1956 1203.61 73.5396C1205.05 74.6468 1207.01 75.2708 1209.42 75.466C1209.41 75.498 1209.4 75.5236 1209.4 75.5556L1209.4 78.0004C1209.4 78.8836 1210.12 79.6004 1211 79.6004C1211 79.6004 1211 79.6004 1211 79.6004C1211.88 79.6004 1212.6 78.8804 1212.6 78.0004L1212.6 75.5556C1212.6 75.5268 1212.58 75.5012 1212.58 75.4692C1214.99 75.2772 1216.95 74.666 1218.39 73.578C1220.15 72.2596 1221.02 70.1668 1221.02 67.2996C1221.02 65.6868 1220.59 64.394 1219.74 63.4212C1218.88 62.4484 1217.85 61.7188 1216.64 61.2324Z" fill="#F8F7FD"/>
<path d="M687.997 123.485C678.072 132.577 677.137 147.785 685.911 157.393C694.685 167.001 709.894 167.421 719.818 158.33C729.743 149.239 730.678 134.03 721.904 124.422C713.13 114.815 697.921 114.394 687.997 123.485ZM717.697 156.007C709.097 163.885 695.914 163.52 688.31 155.195C680.707 146.869 681.518 133.686 690.118 125.808C698.718 117.931 711.901 118.295 719.504 126.62C727.108 134.946 726.297 148.129 717.697 156.007Z" fill="#F8F7FD"/>
<path d="M707.649 136.453C706.418 136.928 704.9 137.65 703.093 138.62C701.699 139.382 700.577 139.947 699.726 140.315C698.875 140.682 698.054 140.869 697.262 140.874C696.47 140.88 695.793 140.574 695.23 139.958C694.48 139.137 694.285 138.158 694.646 137.021C695.007 135.885 695.873 134.69 697.242 133.435C698.476 132.305 699.691 131.638 700.887 131.434C702.082 131.231 703.089 131.577 703.908 132.473L704.291 132.893L707.127 130.296L706.82 129.96C705.251 128.243 703.418 127.487 701.322 127.693C699.623 127.86 697.896 128.644 696.144 129.984L694.454 128.133C693.865 127.489 692.848 127.461 692.182 128.07C691.517 128.68 691.454 129.697 692.043 130.341L693.733 132.192C692.276 133.792 691.332 135.419 690.955 137.081C690.481 139.161 691.088 141.125 692.776 142.973C693.816 144.112 694.965 144.749 696.221 144.883C697.478 145.018 698.694 144.856 699.869 144.397C701.043 143.938 702.527 143.236 704.314 142.284C705.764 141.505 706.942 140.923 707.848 140.539C708.754 140.155 709.634 139.974 710.488 139.998C711.342 140.021 712.093 140.388 712.741 141.097C713.56 141.993 713.784 143.082 713.414 144.364C713.044 145.646 712.136 146.95 710.689 148.274C709.204 149.635 707.799 150.433 706.474 150.669C705.149 150.906 703.992 150.483 703.003 149.4L702.495 148.785L699.66 151.382L700.142 151.969C701.847 153.835 703.808 154.654 706.025 154.424C707.849 154.236 709.74 153.339 711.683 151.821C711.702 151.847 711.707 151.876 711.729 151.9L713.36 153.68C713.948 154.324 714.968 154.35 715.631 153.743C715.631 153.743 715.631 153.743 715.633 153.741C716.296 153.134 716.357 152.114 715.77 151.472L714.14 149.691C714.12 149.67 714.091 149.663 714.07 149.639C715.757 147.837 716.823 146.042 717.188 144.25C717.631 142.079 716.898 139.947 714.988 137.856C713.914 136.68 712.73 136.033 711.436 135.916C710.142 135.798 708.879 135.977 707.649 136.453Z" fill="#F8F7FD"/>
<path d="M329 390C315.765 390 305 400.765 305 414C305 427.235 315.765 438 329 438C342.235 438 353 427.235 353 414C353 400.765 342.235 390 329 390ZM329 434.8C317.531 434.8 308.2 425.469 308.2 414C308.2 402.531 317.531 393.2 329 393.2C340.469 393.2 349.8 402.531 349.8 414C349.8 425.469 340.469 434.8 329 434.8Z" fill="#F8F7FD"/>
<path d="M334.645 413.232C333.442 412.746 331.867 412.247 329.922 411.735C328.411 411.351 327.227 411.005 326.37 410.698C325.512 410.391 324.795 409.968 324.219 409.431C323.643 408.893 323.355 408.202 323.355 407.357C323.355 406.231 323.861 405.367 324.872 404.765C325.883 404.164 327.298 403.863 329.115 403.863C330.754 403.863 332.072 404.196 333.07 404.861C334.069 405.527 334.568 406.474 334.568 407.703V408.279H338.331V407.818C338.331 405.463 337.506 403.645 335.854 402.365C334.517 401.328 332.75 400.733 330.6 400.535V397.997C330.6 397.114 329.883 396.397 329 396.397C328.117 396.397 327.4 397.114 327.4 397.997V400.535C325.291 400.733 323.534 401.303 322.165 402.285C320.45 403.514 319.592 405.396 319.592 407.93C319.592 409.492 320.002 410.752 320.821 411.712C321.64 412.672 322.626 413.383 323.778 413.844C324.93 414.304 326.466 414.794 328.386 415.306C329.947 415.716 331.182 416.087 332.091 416.42C333 416.752 333.755 417.22 334.357 417.821C334.958 418.423 335.259 419.21 335.259 420.183C335.259 421.412 334.702 422.378 333.589 423.082C332.475 423.786 330.958 424.138 329.038 424.138C327.067 424.138 325.525 423.773 324.411 423.044C323.298 422.314 322.741 421.207 322.741 419.722L322.779 418.916H319.016L318.978 419.684C318.978 422.244 319.854 424.196 321.608 425.54C323.051 426.647 325.01 427.271 327.416 427.466C327.413 427.498 327.397 427.524 327.397 427.556L327.4 430C327.4 430.884 328.12 431.6 329 431.6C329 431.6 329 431.6 329.003 431.6C329.883 431.6 330.6 430.88 330.6 430L330.597 427.556C330.597 427.527 330.581 427.501 330.581 427.469C332.99 427.277 334.946 426.666 336.392 425.578C338.146 424.26 339.022 422.167 339.022 419.3C339.022 417.687 338.594 416.394 337.736 415.421C336.878 414.448 335.848 413.719 334.645 413.232Z" fill="#F8F7FD"/>
<path d="M274 136C260.767 136 250 125.234 250 112C250 98.766 260.767 88 274 88C287.233 88 298 98.7666 298 112C298 125.233 287.233 136 274 136ZM274 91.1162C262.485 91.1162 253.116 100.485 253.116 112C253.116 123.516 262.485 132.884 274 132.884C285.516 132.884 294.884 123.516 294.884 112C294.884 100.485 285.516 91.1162 274 91.1162Z" fill="#F8F7FD"/>
<path d="M284.576 108.97L275.691 101.942C274.942 101.351 273.731 101.353 272.987 101.946L264.174 108.97C262.131 110.611 265.196 113.071 267.239 111.431L271.056 108.367C271.692 107.855 272.208 108.028 272.208 108.746V121.51C272.208 122.471 273.178 123.25 274.375 123.25C275.572 123.25 276.542 122.471 276.542 121.51V108.746C276.542 108.025 277.056 107.853 277.695 108.367L281.511 111.431C283.554 113.071 286.619 110.611 284.576 108.97Z" fill="#F8F7FD"/>
<path d="M768 389C754.767 389 744 378.234 744 365C744 351.766 754.767 341 768 341C781.233 341 792 351.767 792 365C792 378.233 781.233 389 768 389ZM768 344.116C756.485 344.116 747.116 353.485 747.116 365C747.116 376.516 756.485 385.884 768 385.884C779.516 385.884 788.884 376.516 788.884 365C788.884 353.485 779.516 344.116 768 344.116Z" fill="#F8F7FD"/>
<path d="M778.576 361.97L769.691 354.942C768.942 354.351 767.731 354.353 766.987 354.946L758.174 361.97C756.131 363.611 759.196 366.071 761.239 364.431L765.056 361.367C765.692 360.855 766.208 361.028 766.208 361.746V374.51C766.208 375.471 767.178 376.25 768.375 376.25C769.572 376.25 770.542 375.471 770.542 374.51V361.746C770.542 361.025 771.056 360.853 771.695 361.367L775.511 364.431C777.554 366.071 780.619 363.611 778.576 361.97Z" fill="#F8F7FD"/>
<path d="M834 120C820.767 120 810 109.234 810 96C810 82.766 820.767 72 834 72C847.233 72 858 82.7666 858 96C858 109.233 847.233 120 834 120ZM834 75.1162C822.485 75.1162 813.116 84.4849 813.116 96C813.116 107.516 822.485 116.884 834 116.884C845.516 116.884 854.884 107.516 854.884 96C854.884 84.4849 845.516 75.1162 834 75.1162Z" fill="#F8F7FD"/>
<path d="M844.576 92.9702L835.691 85.9422C834.942 85.3505 833.731 85.3533 832.987 85.9464L824.174 92.9702C822.131 94.6105 825.196 97.0712 827.239 95.4309L831.056 92.3665C831.692 91.8555 832.208 92.0278 832.208 92.7458V105.51C832.208 106.471 833.178 107.25 834.375 107.25C835.572 107.25 836.542 106.471 836.542 105.51V92.7458C836.542 92.0253 837.056 91.8531 837.695 92.3665L841.511 95.4309C843.554 97.0712 846.619 94.6105 844.576 92.9702Z" fill="#F8F7FD"/>
<path d="M79 418C65.7666 418 55 407.234 55 394C55 380.766 65.7666 370 79 370C92.2334 370 103 380.767 103 394C103 407.233 92.2334 418 79 418ZM79 373.116C67.4849 373.116 58.1162 382.485 58.1162 394C58.1162 405.516 67.4849 414.884 79 414.884C90.5157 414.884 99.8838 405.516 99.8838 394C99.8838 382.485 90.5157 373.116 79 373.116Z" fill="#F8F7FD"/>
<path d="M89.5763 390.97L80.6905 383.942C79.9424 383.351 78.7307 383.353 77.9865 383.946L69.1737 390.97C67.1306 392.611 70.1956 395.071 72.2387 393.431L76.0555 390.367C76.6921 389.855 77.2081 390.028 77.2081 390.746V403.51C77.2081 404.471 78.1779 405.25 79.3753 405.25C80.5721 405.25 81.5425 404.471 81.5425 403.51V390.746C81.5425 390.025 82.0555 389.853 82.6949 390.367L86.5113 393.431C88.5544 395.071 91.6194 392.611 89.5763 390.97Z" fill="#F8F7FD"/>
<path d="M471.656 273.949C460.657 266.591 457.693 251.656 465.051 240.656C472.409 229.656 487.344 226.694 498.344 234.052C509.343 241.409 512.306 256.344 504.949 267.344C497.591 278.343 482.656 281.306 471.656 273.949ZM496.611 236.642C487.04 230.239 474.044 232.818 467.642 242.389C461.239 251.961 463.818 264.956 473.389 271.358C482.961 277.761 495.956 275.183 502.358 265.611C508.761 256.04 506.183 243.044 496.611 236.642Z" fill="#F8F7FD"/>
<path d="M495.475 257.362L491.997 246.58C491.704 245.672 490.696 245.001 489.747 245.08L478.517 246.018C475.907 246.246 477.086 249.995 479.696 249.768L484.573 249.343C485.386 249.272 485.719 249.702 485.32 250.299L478.223 260.908C477.689 261.707 478.062 262.894 479.057 263.559C480.052 264.225 481.291 264.117 481.826 263.318L488.923 252.709C489.323 252.11 489.845 252.252 490.091 253.034L491.56 257.703C492.346 260.203 496.262 259.861 495.475 257.362Z" fill="#F8F7FD"/>
<path d="M966 311C952.767 311 942 300.234 942 287C942 273.766 952.767 263 966 263C979.233 263 990 273.767 990 287C990 300.233 979.233 311 966 311ZM966 266.116C954.485 266.116 945.116 275.485 945.116 287C945.116 298.516 954.485 307.884 966 307.884C977.516 307.884 986.884 298.516 986.884 287C986.884 275.485 977.516 266.116 966 266.116Z" fill="#F8F7FD"/>
<path d="M976.576 283.97L967.691 276.942C966.942 276.351 965.731 276.353 964.987 276.946L956.174 283.97C954.131 285.611 957.196 288.071 959.239 286.431L963.056 283.367C963.692 282.855 964.208 283.028 964.208 283.746V296.51C964.208 297.471 965.178 298.25 966.375 298.25C967.572 298.25 968.542 297.471 968.542 296.51V283.746C968.542 283.025 969.056 282.853 969.695 283.367L973.511 286.431C975.554 288.071 978.619 285.611 976.576 283.97Z" fill="#F8F7FD"/>
</g>
</svg>
