<svg width="20" height="20" viewBox="0 0 20 20" fill="none" xmlns="http://www.w3.org/2000/svg">
<path d="M9.39978 7.6389L11.2923 5.75676C11.3875 5.66176 11.4218 5.51997 11.3808 5.39069C11.3395 5.2614 11.23 5.16712 11.098 5.14747L8.48276 4.75997L7.31303 2.34176C7.19542 2.09783 6.80306 2.09783 6.68546 2.34176L5.51573 4.75997L2.90047 5.14747C2.76851 5.16712 2.65931 5.2614 2.61766 5.39069C2.57671 5.51997 2.61066 5.66176 2.70621 5.75676L4.59871 7.6389L4.1521 10.2968C4.1297 10.4307 4.1836 10.566 4.29105 10.646C4.3999 10.726 4.54236 10.7364 4.65961 10.6732L6.99977 9.41855L9.33923 10.6732C9.38998 10.7007 9.44598 10.7143 9.50163 10.7143C9.57408 10.7143 9.64654 10.6914 9.70744 10.646C9.81524 10.566 9.86914 10.4307 9.84639 10.2968L9.39978 7.6389ZM8.67911 7.57462L9.03682 9.70426L7.16252 8.6989C7.11142 8.6714 7.05577 8.65783 6.99977 8.65783C6.94377 8.65783 6.88812 8.6714 6.83702 8.6989L4.96272 9.70426L5.32043 7.57462C5.34003 7.4589 5.30223 7.34069 5.21998 7.25855L3.70374 5.75069L5.79889 5.43997C5.91299 5.42319 6.01134 5.34997 6.06245 5.24462L6.99977 3.30712L7.93709 5.24462C7.98819 5.34997 8.08655 5.42319 8.20065 5.43997L10.2958 5.75069L8.77956 7.25855C8.69731 7.34069 8.65951 7.4589 8.67911 7.57462Z" fill="#3512B1"/>
<path d="M13.9837 18.1068L11.8963 11.3618C12.9816 10.1536 13.6502 8.54964 13.6502 6.78571C13.6502 3.04393 10.667 0 7 0C3.33296 0 0.349834 3.04393 0.349834 6.78571C0.349834 8.54964 1.01835 10.1536 2.10373 11.3618L0.0162759 18.1068C-0.0239751 18.2371 0.0117259 18.3796 0.109028 18.4736C0.206331 18.5675 0.347384 18.5964 0.473037 18.5489L3.02145 17.5739L4.61539 19.8507C4.68154 19.9454 4.7883 20 4.89995 20C4.92025 20 4.94055 19.9982 4.96085 19.9946C5.0935 19.9707 5.20131 19.8711 5.23736 19.7386L6.9174 13.5675C6.9454 13.5675 6.972 13.5714 7 13.5714C7.028 13.5714 7.0546 13.5675 7.0826 13.5671L8.76264 19.7382C8.79905 19.8707 8.9065 19.9704 9.03915 19.9943C9.0598 19.9982 9.07975 20 9.10005 20C9.21171 20 9.31846 19.9454 9.38461 19.8504L10.9786 17.5736L13.527 18.5486C13.6526 18.5964 13.7937 18.5675 13.891 18.4732C13.9883 18.3793 14.024 18.2368 13.9837 18.1068ZM4.75889 18.8268L3.43481 16.9354C3.34276 16.8032 3.1758 16.7514 3.02705 16.8086L0.900398 17.6225L2.66479 11.9204C3.64062 12.7793 4.86005 13.3536 6.20408 13.5182L4.75889 18.8268ZM1.04985 6.78571C1.04985 3.43786 3.71902 0.714286 7 0.714286C10.281 0.714286 12.9501 3.43786 12.9501 6.78571C12.9501 10.1336 10.281 12.8571 7 12.8571C3.71902 12.8571 1.04985 10.1336 1.04985 6.78571ZM10.9733 16.8082C10.8242 16.7514 10.6572 16.8032 10.5655 16.935L9.24146 18.8264L7.79627 13.5175C9.1403 13.3529 10.3597 12.7786 11.3356 11.9196L13.1 17.6218L10.9733 16.8082Z" fill="#3512B1"/>
</svg>
