<svg width="48" height="48" viewBox="0 0 48 48" fill="none" xmlns="http://www.w3.org/2000/svg">
<path d="M1.8058 12.9051C2.34034 13.4833 2.89074 13.4897 3.44125 12.9639C6.34897 9.88069 8.94658 7.03145 12.2307 3.47907C12.516 3.16284 12.5397 2.5645 12.2121 2.22365C9.15873 -0.849445 4.65098 -0.589786 1.98215 2.29692C-0.885622 5.39893 -0.371392 10.187 1.8058 12.9051ZM35.6096 2.2235C35.2865 2.56542 35.2808 3.12591 35.5972 3.47549C38.7991 6.90346 41.9107 10.3021 44.6585 13.2613C45.0001 13.6308 45.5726 13.4085 45.9454 13.0053C48.7825 9.93644 48.6392 5.32471 45.7728 2.22421C43.0998 -0.66708 38.505 -0.814563 35.6096 2.2235ZM10.4306 2.8979L2.67705 11.2916C1.2875 8.52919 1.25742 5.65435 3.18644 3.50051C5.38977 1.11722 8.33895 1.32909 10.4306 2.8979ZM44.6237 3.48857C46.6228 5.65094 46.5697 9.13865 45.1488 11.2899L37.3921 2.8979C39.8084 1.28054 42.6205 1.353 44.6237 3.48857ZM23.9026 3.72446C10.043 3.72446 3.68663 16.3766 3.40712 25.8701C3.40712 39.7272 14.6263 48 24.016 48C36.2479 48 44.1858 37.8086 44.3534 25.8475C44.3534 13.1885 35.3339 3.72446 23.9026 3.72446ZM23.092 5.53154V9.93416C23.1168 11.0888 24.7054 11.0888 24.7291 9.93416V5.53154C29.3165 5.74235 33.474 7.72091 36.6359 10.8576L33.9742 13.7368C33.1732 14.5736 34.3655 15.8563 35.1348 14.9853L37.7918 12.1061C40.6913 15.526 42.5189 20.024 42.7141 24.9855H38.5671C37.5015 25.0668 37.5775 26.7853 38.6454 26.7562H42.714C42.5176 31.7166 40.6895 36.2135 37.7901 39.6339L35.1347 36.7564C34.3061 35.8601 33.2699 37.2432 33.9741 38.005L36.6358 40.8824C33.4739 44.0205 29.3164 45.9993 24.729 46.2102V41.8075C24.729 40.4554 23.092 40.4696 23.092 41.8075V46.2102C18.5083 45.9974 14.3513 44.0195 11.1899 40.8841L13.8469 38.005C14.76 37.0172 13.5458 35.8351 12.6942 36.7564L10.0341 39.6321C7.13423 36.212 5.30341 31.7158 5.10697 26.7562H9.17719C10.2443 26.7295 10.2443 25.0114 9.17719 24.9855H5.10697C5.30217 20.0249 7.13248 15.5275 10.0325 12.1078L12.6942 14.9853C13.4607 15.9686 14.757 14.5645 13.8469 13.7368L11.1899 10.8558C14.3513 7.72188 18.5083 5.74413 23.092 5.53154ZM16.5423 21.4423C14.2892 21.4423 12.4513 23.4303 12.4513 25.8674C12.4513 28.3046 14.2892 30.2994 16.5423 30.2994H20.6445C21.9824 30.2994 23.1634 29.5859 23.9105 28.5045C24.6576 29.5859 25.8387 30.2994 27.1766 30.2994H31.2788C33.5319 30.2994 35.3698 28.3046 35.3698 25.8674C35.3698 23.4303 33.5319 21.4423 31.2788 21.4423H27.1766C25.8384 21.4423 24.6576 22.1537 23.9105 23.2338C23.1635 22.1537 21.9827 21.4423 20.6445 21.4423H16.5423ZM16.5423 23.2147H20.6445C22.0918 23.2147 23.0856 24.5104 23.0856 25.8674C23.0856 27.4622 21.8821 28.5269 20.6445 28.5269H16.5423C15.1678 28.5269 14.0899 27.3542 14.0899 25.8674C14.0899 24.3807 15.1678 23.2147 16.5423 23.2147ZM31.2788 23.2147C32.6533 23.208 33.7328 24.3807 33.7328 25.8674C33.7328 27.3542 32.6533 28.5269 31.2788 28.5269C30.43 28.5611 28.1883 28.624 27.1766 28.5537C26.063 28.4754 24.8311 27.8536 24.7354 25.8684C24.7354 24.0083 25.9702 23.2336 27.1766 23.2336L31.2788 23.2147Z" fill="#3512B1"/>
</svg>
