<svg width="75" height="75" viewBox="0 0 75 75" fill="none" xmlns="http://www.w3.org/2000/svg">
<path d="M71.5986 8.2982H26.9712C27.2142 9.24657 27.2952 10.353 27.2952 11.3804C27.2952 12.6449 27.1332 13.8303 26.8093 15.0158H68.0349V49.236H14.0123V26.5543C13.2024 26.7123 12.4734 26.7123 11.6635 26.7123C10.0436 26.7123 8.50476 26.4752 7.04688 26.001V57.6133C7.04688 59.431 8.58575 60.9326 10.4486 60.9326H34.2606V67.0179H31.3449C27.7812 67.0179 24.8654 69.863 24.8654 73.3404C24.8654 74.2887 25.6753 75 26.5663 75H55.5619C56.5338 75 57.2628 74.2097 57.2628 73.3404C57.2628 69.863 54.347 67.0179 50.7833 67.0179H47.8675V60.9326H71.5986C73.4614 60.9326 75.0003 59.431 75.0003 57.6133V11.6175C75.0003 9.79978 73.4614 8.2982 71.5986 8.2982ZM41.0641 57.4552C39.7682 57.4552 38.7153 56.4278 38.7153 55.1633C38.7153 53.8988 39.7682 52.7924 41.0641 52.7924C42.36 52.7924 43.4939 53.8198 43.4939 55.1633C43.4129 56.4278 42.36 57.4552 41.0641 57.4552Z" fill="#22097B"/>
<path d="M23.3261 11.3804C23.3261 5.05796 18.0615 0 11.663 0C5.18357 0 0 5.13699 0 11.3804C0 17.7028 5.26457 22.7608 11.663 22.7608C18.1425 22.8398 23.3261 17.7028 23.3261 11.3804ZM8.18033 15.49V7.34984C8.18033 6.7176 8.82828 6.40147 9.39523 6.7176L16.1177 10.8272C16.6036 11.1433 16.6036 11.8546 16.1177 12.0917L9.39523 16.2013C8.82828 16.4384 8.18033 16.1222 8.18033 15.49Z" fill="#FECA55"/>
<path d="M25.7553 42.9926H56.3708C57.5047 42.9926 58.3956 42.1233 58.3956 41.0169C58.3956 39.9104 57.5047 39.0411 56.3708 39.0411H25.7553C24.6214 39.0411 23.7305 39.9104 23.7305 41.0169C23.7305 42.1233 24.6214 42.9926 25.7553 42.9926Z" fill="#22097B"/>
<path d="M25.7553 34.1412H56.3708C57.5047 34.1412 58.3956 33.2719 58.3956 32.1654C58.3956 31.059 57.5047 30.1897 56.3708 30.1897H25.7553C24.6214 30.1897 23.7305 31.059 23.7305 32.1654C23.7305 33.2719 24.6214 34.1412 25.7553 34.1412Z" fill="#22097B"/>
<path d="M25.7553 25.2898H56.3708C57.5047 25.2898 58.3956 24.4204 58.3956 23.314C58.3956 22.2076 57.5047 21.3382 56.3708 21.3382H25.7553C24.6214 21.3382 23.7305 22.2076 23.7305 23.314C23.7305 24.4204 24.6214 25.2898 25.7553 25.2898Z" fill="#22097B"/>
</svg>
