<svg width="20" height="20" viewBox="0 0 20 20" fill="none" xmlns="http://www.w3.org/2000/svg">
<path d="M0.454546 1.34643e-05C0.210136 6.48752e-06 -0.0001817 0.255616 1.17798e-07 0.46513V19.5349C2.28451e-05 19.7784 0.216546 20 0.454546 20H14.5455C14.7835 20 15 19.7784 15 19.5349V4.65118C15 4.52735 14.9511 4.40394 14.865 4.31687L10.7741 0.130827C10.6896 0.0471088 10.5722 -0.000923745 10.4545 1.34643e-05H0.454546ZM0.909091 0.930246H10V4.65118C10 4.8947 10.2165 5.11627 10.4545 5.11629H14.0909V19.0698H0.909091V0.930246ZM10.9091 1.58432L13.4517 4.18606H10.9091V1.58432ZM2.95455 3.9535C2.7035 3.9535 2.5 4.16173 2.5 4.41862C2.5 4.6755 2.7035 4.88373 2.95455 4.88373H7.95455C8.20559 4.88373 8.40909 4.6755 8.40909 4.41862C8.40909 4.16173 8.20559 3.9535 7.95455 3.9535H2.95455ZM2.95455 7.67443C2.7035 7.67443 2.5 7.88266 2.5 8.13955C2.5 8.39643 2.7035 8.60466 2.95455 8.60466H12.0455C12.2965 8.60466 12.5 8.39643 12.5 8.13955C12.5 7.88266 12.2965 7.67443 12.0455 7.67443H2.95455ZM2.95455 11.3953C2.7035 11.3953 2.5 11.6036 2.5 11.8605C2.5 12.1173 2.7035 12.3256 2.95455 12.3256H12.0455C12.2965 12.3256 12.5 12.1173 12.5 11.8605C12.5 11.6036 12.2965 11.3953 12.0455 11.3953H2.95455ZM2.95455 15.1163C2.7035 15.1163 2.5 15.3245 2.5 15.5814C2.5 15.8383 2.7035 16.0465 2.95455 16.0465H12.0455C12.2965 16.0465 12.5 15.8383 12.5 15.5814C12.5 15.3245 12.2965 15.1163 12.0455 15.1163H2.95455Z" fill="#3512B1"/>
</svg>
