<svg width="38" height="48" viewBox="0 0 38 48" fill="none" xmlns="http://www.w3.org/2000/svg">
<path d="M18.7963 0C9.07451 0 1.18849 8.63112 1.18849 19.243C1.19718 27.2463 5.86142 34.3059 12.6738 37.1314V39.7208C12.6723 40.1785 13.0146 40.5507 13.438 40.5517H24.1591C24.5826 40.5509 24.925 40.1785 24.9233 39.7208V37.125C31.7332 34.2991 36.3995 27.244 36.4087 19.243C36.4087 8.63112 28.5181 0 18.7963 0ZM0.26281 1.82649L2.56282 4.30604C3.28035 5.21143 4.48026 3.91454 3.64258 3.13905L1.34702 0.65301C0.435257 -0.33246 -0.414806 1.0941 0.26281 1.82649ZM36.6344 0.65301L34.3344 3.14062C33.5308 3.92081 34.7013 5.17897 35.4186 4.30604L37.7142 1.82649C38.4512 1.02991 37.2855 -0.0506068 36.6344 0.65301ZM18.7963 1.6552C27.6811 1.6552 34.8758 9.51556 34.8758 19.243C34.8642 26.7521 30.4039 33.4316 23.9049 35.8609C23.5973 35.9764 23.3909 36.2897 23.3904 36.6417V38.8965H14.2067V36.6417C14.2051 36.288 13.9963 35.9743 13.6863 35.8609C7.18449 33.4306 2.72882 26.7558 2.72135 19.243C2.72135 9.51556 9.91153 1.6552 18.7963 1.6552ZM17.9364 7.86533L6.67243 15.194C6.26257 15.4608 6.26257 15.9229 6.67243 16.1897L11.1424 19.0991V25.8604C11.1424 27.2563 11.8478 28.1913 12.5273 28.584C13.2067 28.9767 13.8777 28.9639 13.8777 28.9639H23.7195C23.7195 28.9639 24.3845 28.9764 25.0639 28.584C25.7433 28.1913 26.4547 27.2563 26.4547 25.8604V19.0975L29.5235 17.0997V21.5156C28.5163 21.5156 28.5647 23.1724 29.5177 23.1724H31.0505C32.0724 23.1755 32.0769 21.5188 31.0563 21.5156C31.0564 19.6851 31.0555 17.8524 31.0578 16.0231C31.0578 15.646 31.1304 15.4602 30.8231 15.2602L19.4634 7.86848C18.8821 7.51543 18.5111 7.50753 17.9378 7.86533H17.9364ZM18.696 9.18586L28.7965 15.7581L18.7978 22.2656L8.6973 15.6918L18.696 9.18586ZM12.6737 20.0948L18.0321 23.583C18.4419 23.8498 19.1536 23.8498 19.5634 23.583L24.9232 20.0948V25.8604C24.9232 26.9025 24.5813 27.3071 23.7194 27.3071H13.8776C12.9968 27.3071 12.6813 26.4978 12.6737 25.8604V20.0948ZM34.3343 34.9315L36.6344 37.4127C37.3519 38.3181 38.5518 37.0212 37.7141 36.2457L35.4185 33.7597C34.6376 32.9156 33.6761 34.2201 34.3343 34.9315ZM2.56278 33.7597L0.262722 36.2457C-0.520292 37.0263 0.627905 38.2622 1.34693 37.4127L3.64249 34.9315C4.44932 34.0595 3.2463 33.0209 2.56278 33.7597ZM13.6069 42.2085C13.0906 42.2092 12.7229 42.7508 12.8771 43.2834C13.6746 46.0216 16.0221 48 18.7962 48C21.5704 48 23.9223 46.0216 24.7199 43.2834C24.8741 42.7508 24.5063 42.2092 23.9901 42.2085H13.6069ZM15.0366 43.8636H22.5544C21.7233 45.2728 20.4561 46.3432 18.7962 46.3432C17.1358 46.3432 15.8676 45.2738 15.0366 43.8636Z" fill="#3512B1"/>
</svg>
