<svg width="48" height="48" viewBox="0 0 48 48" fill="none" xmlns="http://www.w3.org/2000/svg">
<path d="M12.1749 9.41554C12.1749 9.8876 12.2203 10.3489 12.286 10.8026C5.22139 12.5951 0 19.1294 0 26.9591C0 32.0508 2.32256 36.4871 5.80499 39.5377L3.13102 44.1564C2.89917 44.5521 3.02294 45.0663 3.40711 45.3049L7.57441 47.8798C7.86369 48.0568 8.22899 48.0322 8.49321 47.8178L13.9031 43.4148C18.8895 43.4148 23.9096 43.57 28.7774 43.57L34.1571 47.8244C34.4224 48.0362 34.7868 48.0584 35.0744 47.8801L39.2369 45.3052C39.6182 45.0716 39.7467 44.5659 39.5259 44.1697L37.3357 40.2288C40.1258 38.1059 42.1935 35.2574 43.1597 31.6955H47.1493C47.5962 31.6972 47.9606 31.3272 47.965 30.8672L48 23.3779C48.0017 22.9133 47.6355 22.5364 47.1843 22.5381H43.2202C41.5654 16.3581 36.6214 11.6469 30.3913 10.5772C30.4371 10.196 30.469 9.80922 30.469 9.41554C30.469 4.22579 26.3629 0 21.322 0C16.281 0 12.1749 4.22579 12.1749 9.41554ZM28.8424 9.41554C28.7816 13.6482 25.5827 17.1601 21.3219 17.1601C17.258 17.2148 13.8658 12.8202 13.7998 9.41588C13.7998 5.13027 17.1592 1.67339 21.3219 1.67317C25.4846 1.67298 28.8424 5.12994 28.8424 9.41554ZM20.7284 3.08627C17.9678 3.36828 15.777 5.63441 15.5153 8.47777C15.3256 9.65609 17.0971 9.83184 17.1292 8.63774C17.3184 6.58051 18.8866 4.95834 20.8839 4.75423C21.8576 4.70807 21.75 3.04548 20.7284 3.08627ZM30.0231 12.3073C35.8714 13.2821 40.5746 17.6822 41.8886 23.5625C41.9737 23.9422 42.302 24.2111 42.6805 24.2111H46.3685L46.3378 30.0274H42.6498C42.2713 30.0273 41.9429 30.2964 41.8579 30.676C41.0209 34.4247 38.8928 37.2935 35.8656 39.3956C35.5118 39.6409 35.4023 40.1259 35.6151 40.5065L37.7193 44.292L34.7089 46.1512L29.526 42.0504C29.3648 41.9246 29.164 41.8652 28.9626 41.8839C24.0759 41.7625 18.8486 41.7302 13.7757 41.7302C13.5509 41.6916 13.3204 41.7523 13.1409 41.8968L7.92781 46.1447L4.93488 44.2985L7.48505 39.9085C7.69234 39.545 7.60483 39.0793 7.28023 38.822C3.83778 36.0841 1.62444 31.8098 1.62444 26.9591C1.62444 19.8977 6.33762 14.1096 12.6869 12.4952C14.8318 16.4461 17.541 18.8326 21.3214 18.8326C25.753 18.8326 28.83 15.5947 30.0231 12.3073ZM14.6584 19.728C13.5504 19.7027 13.5504 21.4266 14.6584 21.401H27.9918C29.0511 21.3757 29.0511 19.7525 27.9918 19.728H14.6584ZM6.27306 21.3765C4.77087 22.923 3.84346 25.065 3.84346 27.4281C3.84346 29.7912 4.77087 31.9396 6.27306 33.4861C7.04106 34.3048 8.21821 33.0861 7.41879 32.3C6.21008 31.0556 5.47005 29.3422 5.47005 27.4281C5.47005 25.514 6.21008 23.8005 7.41879 22.5561C7.95995 21.8893 7.15165 20.7277 6.27306 21.3765Z" fill="#3512B1"/>
</svg>
