<svg width="20" height="20" viewBox="0 0 20 20" fill="none" xmlns="http://www.w3.org/2000/svg">
<circle cx="10" cy="10" r="9.5" stroke="#3512B1"/>
<path fill-rule="evenodd" clip-rule="evenodd" d="M6.92044 15C6.37087 15 6 14.5999 6 14.0039V5.98799C6 5.17644 6.7552 4.75198 7.53366 5.15323L15.399 9.19347C15.7815 9.38928 16 9.68187 16 9.99597C16 10.3101 15.7815 10.6027 15.399 10.7996L7.53366 14.8398C7.32558 14.9462 7.11995 15 6.92044 15ZM6.92044 5.60146C6.69339 5.60146 6.65851 5.84368 6.65851 5.98856V14.0045C6.65851 14.1494 6.69339 14.3916 6.92044 14.3916C7.00551 14.3916 7.10588 14.3628 7.2142 14.3079L15.0808 10.2665C15.2411 10.1844 15.3415 10.0809 15.3415 9.99654C15.3415 9.91221 15.2411 9.80978 15.0808 9.72658L7.2142 5.68635C7.10588 5.63145 7.00551 5.60146 6.92044 5.60146Z" fill="#3512B1"/>
</svg>
