<svg width="75" height="75" viewBox="0 0 75 75" fill="none" xmlns="http://www.w3.org/2000/svg">
<path d="M69.2885 8.29817H26.1009C26.336 9.24653 26.4144 10.353 26.4144 11.3804C26.4144 12.6448 26.2577 13.8303 25.9441 15.0157H65.8397V49.2358H13.56V26.5542C12.7762 26.7122 12.0708 26.7122 11.287 26.7122C9.71941 26.7122 8.23018 26.4751 6.81934 26.0009V57.613C6.81934 59.4307 8.30856 60.9323 10.1113 60.9323H33.1551V67.0176H30.3334C26.8847 67.0176 24.063 69.8627 24.063 73.3401C24.063 74.2884 24.8468 74.9997 25.709 74.9997H53.7692C54.7097 74.9997 55.4152 74.2094 55.4152 73.3401C55.4152 69.8627 52.5935 67.0176 49.1447 67.0176H46.323V60.9323H69.2885C71.0912 60.9323 72.5805 59.4307 72.5805 57.613V11.6174C72.5805 9.79975 71.0912 8.29817 69.2885 8.29817ZM39.7391 57.455C38.485 57.455 37.4661 56.4276 37.4661 55.1631C37.4661 53.8986 38.485 52.7922 39.7391 52.7922C40.9932 52.7922 42.0905 53.8196 42.0905 55.1631C42.0121 56.4276 40.9932 57.455 39.7391 57.455Z" fill="#22097B"/>
<path d="M22.5735 11.3804C22.5735 5.05794 17.4788 0 11.2868 0C5.01634 0 0 5.13697 0 11.3804C0 17.7028 5.09472 22.7607 11.2868 22.7607C17.5572 22.8397 22.5735 17.7028 22.5735 11.3804ZM7.91642 15.4899V7.34981C7.91642 6.71757 8.54346 6.40145 9.09212 6.71757L15.5977 10.8271C16.068 11.1433 16.068 11.8545 15.5977 12.0916L9.09212 16.2012C8.54346 16.4383 7.91642 16.1222 7.91642 15.4899Z" fill="#22097B"/>
<path d="M24.9244 42.9925H54.5521C55.6495 42.9925 56.5116 42.1231 56.5116 41.0167C56.5116 39.9103 55.6495 39.041 54.5521 39.041H24.9244C23.827 39.041 22.9648 39.9103 22.9648 41.0167C22.9648 42.1231 23.827 42.9925 24.9244 42.9925Z" fill="#22097B"/>
<path d="M24.9244 34.1411H54.5521C55.6495 34.1411 56.5116 33.2717 56.5116 32.1653C56.5116 31.0589 55.6495 30.1895 54.5521 30.1895H24.9244C23.827 30.1895 22.9648 31.0589 22.9648 32.1653C22.9648 33.2717 23.827 34.1411 24.9244 34.1411Z" fill="#22097B"/>
<path d="M24.9244 25.2897H54.5521C55.6495 25.2897 56.5116 24.4203 56.5116 23.3139C56.5116 22.2075 55.6495 21.3382 54.5521 21.3382H24.9244C23.827 21.3382 22.9648 22.2075 22.9648 23.3139C22.9648 24.4203 23.827 25.2897 24.9244 25.2897Z" fill="#22097B"/>
<path d="M73.9997 59.375C73.9997 67.4833 67.6469 74 59.8788 74C52.1106 74 45.7578 67.4833 45.7578 59.375C45.7578 51.2667 52.1106 44.75 59.8788 44.75C67.6469 44.75 73.9997 51.2667 73.9997 59.375Z" fill="#FECA55" stroke="#F8F7FD" stroke-width="2"/>
<path d="M64.5434 58.7976C64.5379 58.7931 64.5324 58.7882 64.5273 58.7834C65.116 58.7321 65.6342 58.3508 65.8712 57.7848L65.8889 57.7425C65.9756 57.5354 66.0209 57.312 66.0217 57.0866C66.0268 55.6242 65.5472 54.355 64.6352 53.4159C64.0697 52.8337 63.3798 52.4023 62.5746 52.1257L62.5683 51.6435C62.562 51.2012 62.3863 50.7792 62.0792 50.4712C61.7779 50.1689 61.3747 50 60.9554 50C60.9471 50 60.9388 50 60.9306 50L59.52 50.0224C58.6309 50.0366 57.9203 50.7918 57.9321 51.711L57.9373 52.1191C57.1304 52.3832 56.436 52.7905 55.8625 53.3366C54.8914 54.2595 54.3872 55.4911 54.4049 56.8966C54.4313 58.735 55.2279 59.8352 55.9239 60.4476L55.6447 60.4525C55.0598 60.4618 54.5258 60.7979 54.249 61.3306L54.2232 61.3802C54.0992 61.619 54.0332 61.8856 54.0314 62.157C54.0172 64.3013 54.9542 65.5164 55.7427 66.158C56.3834 66.678 57.1257 67.0536 57.9605 67.2819L57.9638 67.5232C57.9698 67.9655 58.1456 68.387 58.4525 68.6955C58.7537 68.9978 59.1572 69.1667 59.5765 69.1667C59.5844 69.1667 59.5925 69.1667 59.6004 69.1667L61.0105 69.1451C61.9004 69.1313 62.6116 68.3752 62.5994 67.4552L62.5958 67.1932C63.3999 66.9352 64.0914 66.5401 64.6612 66.0112C65.6409 65.0997 66.1473 63.8574 66.1276 62.4174C66.1083 60.9302 65.5606 59.6777 64.5434 58.7976ZM63.5834 64.7713C62.9483 65.3609 62.0764 65.717 60.9644 65.8398L60.9865 67.4784L59.5765 67.5L59.5545 65.8626C58.4173 65.7878 57.4795 65.4484 56.7406 64.8486C56.0014 64.2472 55.6365 63.3549 55.6443 62.1684L55.6701 62.1187L58.1912 62.0776C58.2001 62.7869 58.3915 63.2898 58.7654 63.5856C59.1264 63.8717 59.5899 64.0149 60.1548 64.0149C60.1745 64.0149 60.1938 64.0149 60.2135 64.0145C60.7931 64.0055 61.2267 63.8664 61.5121 63.5958C61.7984 63.3244 61.939 62.9582 61.9323 62.4988C61.9268 62.0443 61.7823 61.6833 61.5027 61.4136C61.2192 61.1438 60.7219 60.887 60.0087 60.6437C58.6671 60.2437 57.6687 59.7689 57.017 59.2196C56.3637 58.671 56.0322 57.8894 56.0176 56.875C56.0058 55.9387 56.3181 55.168 56.9554 54.5622C57.5921 53.9559 58.4622 53.5905 59.5675 53.468L59.5448 51.689L60.9554 51.6667L60.9798 53.4692C62.0457 53.5913 62.8848 53.9665 63.4968 54.5967C64.1095 55.2275 64.4123 56.0555 64.4087 57.0805L64.391 57.1228L61.8622 57.1631C61.8547 56.5592 61.7023 56.0974 61.405 55.778C61.1152 55.4667 60.7163 55.3113 60.2087 55.3113C60.1958 55.3113 60.1828 55.3117 60.1698 55.3117C59.6134 55.3206 59.2115 55.4627 58.9676 55.7393C58.7227 56.0144 58.6039 56.3818 58.61 56.842C58.6155 57.2685 58.7514 57.607 59.0182 57.8577C59.285 58.1087 59.7925 58.3744 60.5415 58.6552C61.8598 59.0332 62.849 59.5073 63.5078 60.0753C64.165 60.6441 64.5017 61.4327 64.5147 62.4414C64.5281 63.4054 64.2162 64.1825 63.5834 64.7713Z" fill="#F8F7FD"/>
</svg>
