<svg width="75" height="75" viewBox="0 0 75 75" fill="none" xmlns="http://www.w3.org/2000/svg">
<path d="M54.5944 51.9692C55.388 51.0061 54.9217 49.6677 54.5102 48.4867C54.3809 48.1147 54.179 47.5345 54.1309 47.2118C54.429 47.0934 55.0138 46.9767 55.3897 46.9011C56.6205 46.6556 58.016 46.3764 58.4411 45.1868C58.8576 44.0189 57.9708 42.9242 57.188 41.9584C56.938 41.6494 56.5472 41.1676 56.3933 40.878C56.6319 40.6675 57.1389 40.3596 57.4644 40.1627C58.5424 39.5087 59.7646 38.7683 59.7646 37.5003C59.7646 36.2322 58.5424 35.4919 57.4644 34.8378C57.1389 34.6409 56.6319 34.3331 56.3927 34.1226C56.5472 33.833 56.9374 33.3518 57.1875 33.0434C57.9702 32.078 58.8576 30.9834 58.4405 29.8138C58.016 28.6247 56.6205 28.3455 55.3897 28.1C55.0138 28.0245 54.429 27.9078 54.1309 27.7894C54.179 27.4666 54.3809 26.8869 54.5102 26.515C54.9222 25.3334 55.3886 23.9939 54.595 23.0326C53.9924 22.3007 53.05 22.3007 52.7405 22.3007C52.233 22.3007 51.686 22.3848 51.1561 22.4661C50.7138 22.5336 50.2567 22.6039 49.9282 22.6039C49.9042 22.6039 49.8819 22.6034 49.8619 22.6028C49.8001 22.2818 49.7944 21.677 49.7904 21.2884C49.7772 20.0325 49.7629 18.6088 48.6838 17.9697C48.3982 17.8014 48.0738 17.7156 47.7191 17.7156C46.91 17.7156 46.1135 18.1551 45.2695 18.6197C44.9297 18.8074 44.3999 19.0992 44.0931 19.2016C43.9278 18.9241 43.7178 18.3668 43.5828 18.0086C43.1359 16.8252 42.6301 15.4846 41.3851 15.262C41.2821 15.2436 41.1785 15.2345 41.0738 15.2345C39.9975 15.2345 39.1999 16.1575 38.428 17.0507C38.1665 17.3534 37.7575 17.8272 37.4997 18.0274C37.2419 17.8272 36.8325 17.3534 36.5713 17.0507C35.7997 16.1581 35.0018 15.2345 33.9253 15.2345C33.8208 15.2345 33.717 15.2436 33.614 15.262C32.3698 15.4846 31.864 16.8247 31.4174 18.0074C31.2824 18.3662 31.0718 18.9235 30.9068 19.201C30.598 19.0986 30.0694 18.8074 29.7301 18.6197C28.8864 18.1551 28.0896 17.7156 27.2811 17.7156C26.9264 17.7156 26.6017 17.8014 26.3142 17.9708C25.2367 18.6088 25.2221 20.0325 25.2095 21.289C25.2056 21.6776 25.1995 22.2818 25.1378 22.6028C25.118 22.6034 25.096 22.6039 25.0717 22.6039C24.7432 22.6039 24.2858 22.5336 23.8432 22.4661C23.3137 22.3848 22.7661 22.3007 22.2588 22.3007C21.9493 22.3007 21.0069 22.3007 20.4047 23.0326C19.6125 23.9944 20.0783 25.3329 20.4891 26.5139C20.6187 26.8858 20.8204 27.4666 20.8687 27.7894C20.5709 27.9078 19.9856 28.0245 19.6099 28.1C18.3789 28.3455 16.9839 28.6247 16.5585 29.815C16.142 30.9834 17.0291 32.0775 17.8119 33.0428C18.0622 33.3512 18.453 33.8336 18.6066 34.1226C18.368 34.3337 17.8608 34.6409 17.5352 34.8384C16.4572 35.4919 15.2354 36.2322 15.2354 37.5003C15.2354 38.7683 16.4572 39.5087 17.5352 40.1622C17.8608 40.3596 18.368 40.6669 18.6066 40.878C18.4527 41.1676 18.0619 41.6494 17.8119 41.9584C17.0291 42.9242 16.142 44.0189 16.5591 45.1868C16.9836 46.3764 18.3792 46.6556 19.6102 46.9011C19.9856 46.9767 20.5709 47.0934 20.8685 47.2118C20.8204 47.5345 20.6184 48.1147 20.4891 48.4867C20.078 49.6677 19.6119 51.0061 20.4044 51.9686C21.0032 52.6959 21.9379 52.7004 22.2529 52.7004C22.2546 52.7004 22.2566 52.7004 22.2582 52.7004C22.7658 52.7004 23.3137 52.6164 23.8432 52.5351C24.2858 52.467 24.7435 52.3972 25.0717 52.3972C25.0957 52.3972 25.1177 52.3972 25.1375 52.3977C25.1993 52.7188 25.2056 53.3242 25.2095 53.7132C25.2221 54.9693 25.2367 56.3935 26.3159 57.0315C26.6017 57.2003 26.9264 57.2855 27.2814 57.2855C28.0905 57.2855 28.887 56.8461 29.7306 56.3809C30.0705 56.1938 30.6 55.9014 30.9062 55.799C31.0715 56.077 31.2821 56.635 31.4174 56.9932C31.864 58.1759 32.3698 59.516 33.6137 59.7386C33.717 59.7569 33.8206 59.7661 33.9256 59.7661H33.9261C35.0021 59.7661 35.7997 58.8425 36.5713 57.9499C36.8325 57.6478 37.2419 57.174 37.4997 56.9737C37.7575 57.174 38.1665 57.6478 38.428 57.9505C39.1993 58.8431 39.9975 59.7661 41.0738 59.7661C41.1785 59.7661 41.2827 59.7569 41.3851 59.7386C42.6301 59.516 43.1359 58.1754 43.5828 56.9926C43.7178 56.6344 43.9278 56.0776 44.0931 55.8001C44.4016 55.9025 44.9302 56.1943 45.2695 56.3814C46.113 56.8467 46.9094 57.2855 47.7179 57.2855C48.0732 57.2855 48.3982 57.1997 48.6838 57.0309C49.7623 56.394 49.7772 54.9693 49.7898 53.7121C49.7938 53.3236 49.8001 52.7188 49.8619 52.3977C49.8819 52.3972 49.9036 52.3972 49.9277 52.3972C50.2561 52.3972 50.7138 52.467 51.1567 52.5351C51.686 52.6164 52.2341 52.7004 52.7411 52.7004C53.0506 52.7004 53.993 52.7004 54.5944 51.9692ZM52.2971 49.2574C52.4052 49.5682 52.5648 50.026 52.6415 50.3544C52.3234 50.343 51.9114 50.2794 51.5115 50.2182C50.9822 50.1369 50.4346 50.0534 49.9277 50.0534C49.2285 50.0534 48.6941 50.2193 48.2935 50.5627C47.4713 51.2682 47.4587 52.4985 47.4467 53.6881C47.4433 54.0182 47.4381 54.5035 47.3986 54.8405C47.0937 54.7106 46.6823 54.4835 46.4013 54.3289C45.59 53.8815 44.7512 53.4192 43.9352 53.4192C43.6926 53.4192 43.4621 53.4592 43.2486 53.5382C42.2399 53.9135 41.8079 55.0579 41.3902 56.1646C41.2729 56.4741 41.1013 56.9291 40.9485 57.2335C40.7099 57.0063 40.4078 56.6567 40.2012 56.4181C39.4151 55.5083 38.6025 54.5675 37.4994 54.5675C36.3968 54.5675 35.584 55.5083 34.7981 56.4175C34.5916 56.6561 34.2898 57.0058 34.0512 57.2329C33.8981 56.9285 33.7267 56.4747 33.61 56.1658C33.192 55.0585 32.7601 53.9135 31.7504 53.5382C31.537 53.4592 31.3064 53.4192 31.0641 53.4192C30.2481 53.4192 29.4096 53.8815 28.5989 54.3284C28.3173 54.484 27.9045 54.7112 27.6004 54.8416C27.5612 54.5046 27.5563 54.0194 27.5529 53.6892C27.5409 52.4991 27.5283 51.2682 26.705 50.5621C26.3055 50.2193 25.7711 50.0534 25.0717 50.0534C24.565 50.0534 24.0174 50.1369 23.4881 50.2182C23.0885 50.2794 22.6765 50.343 22.3581 50.3544C22.4348 50.026 22.5942 49.5682 22.7023 49.2574C23.0948 48.1302 23.5004 46.9652 22.9626 46.0182C22.4276 45.074 21.2286 44.8349 20.0694 44.6031C19.7444 44.5379 19.2649 44.4423 18.9433 44.3405C19.1253 44.0601 19.4274 43.687 19.6328 43.4341C20.3864 42.5042 21.1657 41.5423 20.98 40.4626C20.7983 39.4 19.7573 38.7689 18.7502 38.1583C18.4544 37.9786 18.0141 37.712 17.7455 37.5003C18.0141 37.2886 18.4544 37.0219 18.7502 36.8423C19.7573 36.2317 20.7983 35.6005 20.9797 34.5391C21.1657 33.4576 20.3861 32.4963 19.6323 31.5665C19.4271 31.3136 19.1247 30.9411 18.9431 30.6606C19.2647 30.5588 19.7441 30.4632 20.0691 30.398C21.2286 30.1663 22.4276 29.9271 22.962 28.9841C23.5004 28.0365 23.0948 26.871 22.7025 25.7437C22.5944 25.433 22.4351 24.9752 22.3587 24.6468C22.6768 24.6582 23.0888 24.7211 23.4881 24.7824C24.0174 24.8636 24.5647 24.9477 25.0717 24.9477C25.7711 24.9477 26.3055 24.7812 26.7061 24.4379C27.5286 23.7324 27.5412 22.5021 27.5532 21.3125C27.5563 20.9824 27.5612 20.4977 27.6004 20.1606C27.906 20.2905 28.3176 20.5177 28.5986 20.6728C29.4096 21.1196 30.2484 21.582 31.0644 21.582C31.3061 21.582 31.5367 21.5419 31.7493 21.463C32.7598 21.0882 33.192 19.9427 33.6103 18.8354C33.727 18.5258 33.8981 18.0721 34.0512 17.7682C34.2898 17.9954 34.5916 18.3444 34.7979 18.583C35.584 19.4929 36.3968 20.4336 37.4994 20.4336C38.6025 20.4336 39.4156 19.4929 40.2018 18.583C40.4078 18.3439 40.7099 17.9948 40.9485 17.7676C41.1013 18.0721 41.2729 18.5264 41.3896 18.836C41.8079 19.9432 42.2399 21.0882 43.2492 21.463C43.4621 21.5419 43.6926 21.582 43.9347 21.582C44.7506 21.582 45.5894 21.1196 46.4008 20.6728C46.6823 20.5177 47.0948 20.2899 47.3992 20.1601C47.4381 20.4971 47.4433 20.9824 47.4467 21.3119C47.4587 22.5021 47.4713 23.7324 48.2947 24.4391C48.6941 24.7812 49.2285 24.9477 49.9282 24.9477C50.4352 24.9477 50.9822 24.8636 51.5109 24.7824C51.9108 24.7211 52.3234 24.6582 52.6415 24.6468C52.5648 24.9752 52.4058 25.433 52.2971 25.7442C51.9046 26.8715 51.4989 28.0371 52.0367 28.983C52.5717 29.9271 53.771 30.1663 54.9302 30.398C55.2552 30.4632 55.7353 30.5588 56.0569 30.6612C55.8749 30.9411 55.5722 31.3136 55.3674 31.567C54.6138 32.4963 53.8345 33.4576 54.0193 34.5385C54.2019 35.6011 55.2426 36.2322 56.2497 36.8423C56.5455 37.0213 56.9855 37.2886 57.2544 37.5003C56.9855 37.712 56.5455 37.9792 56.2497 38.1583C55.2426 38.7683 54.2019 39.3994 54.0193 40.462C53.8345 41.5429 54.6132 42.5042 55.3674 43.4341C55.5722 43.687 55.8744 44.0601 56.0563 44.3405C55.7347 44.4423 55.2552 44.5379 54.9302 44.6031C53.771 44.8349 52.5717 45.074 52.0373 46.0171C51.4989 46.9646 51.9046 48.1302 52.2971 49.2574Z" fill="#FECA55"/>
<path d="M43.9867 36.3954C43.9787 36.389 43.9707 36.3822 43.9633 36.3753C44.8187 36.3032 45.5717 35.7671 45.9161 34.9711L45.9418 34.9116C46.0678 34.6204 46.1336 34.3062 46.1347 33.9892C46.1421 31.9327 45.4452 30.1479 44.1201 28.8273C43.2984 28.0085 42.296 27.4019 41.1258 27.0129L41.1167 26.3348C41.1076 25.7128 40.8523 25.1194 40.406 24.6863C39.9683 24.2611 39.3824 24.0236 38.7731 24.0236C38.761 24.0236 38.749 24.0236 38.737 24.0236L36.6874 24.0551C35.3955 24.0751 34.363 25.1371 34.3801 26.4297L34.3876 27.0037C33.2152 27.375 32.2062 27.9478 31.3728 28.7157C29.9618 30.0135 29.2291 31.7456 29.2549 33.722C29.2932 36.3072 30.4507 37.8545 31.462 38.7156L31.0564 38.7225C30.2064 38.7357 29.4305 39.2083 29.0282 39.9574L28.9908 40.0272C28.8106 40.363 28.7147 40.7378 28.7121 41.1195C28.6915 44.135 30.0531 45.8437 31.1988 46.746C32.1298 47.4773 33.2083 48.0055 34.4213 48.3265L34.4262 48.6658C34.4348 49.2878 34.6903 49.8806 35.1362 50.3143C35.574 50.7395 36.1602 50.9769 36.7695 50.9769C36.781 50.9769 36.7927 50.9769 36.8042 50.9769L38.8531 50.9466C40.1463 50.9271 41.1796 49.864 41.1619 48.5702L41.1567 48.2017C42.3251 47.8389 43.3299 47.2833 44.1578 46.5395C45.5814 45.2577 46.3172 43.5108 46.2886 41.4857C46.2606 39.3943 45.4647 37.6331 43.9867 36.3954ZM42.5918 44.796C41.6689 45.6251 40.402 46.1258 38.7862 46.2986L38.8182 48.6028L36.7695 48.6332L36.7375 46.3306C35.085 46.2253 33.7224 45.7481 32.6487 44.9047C31.5747 44.059 31.0444 42.8041 31.0558 41.1355L31.0933 41.0657L34.7566 41.0079C34.7695 42.0053 35.0476 42.7125 35.5909 43.1285C36.1155 43.5308 36.789 43.7322 37.6098 43.7322C37.6384 43.7322 37.6664 43.7322 37.695 43.7317C38.5373 43.7191 39.1673 43.5234 39.5821 43.1428C39.9981 42.7612 40.2023 42.2462 40.1926 41.6002C40.1846 40.961 39.9746 40.4534 39.5684 40.0741C39.1564 39.6947 38.4338 39.3336 37.3975 38.9914C35.4481 38.429 33.9974 37.7612 33.0504 36.9888C32.1012 36.2174 31.6194 35.1182 31.5982 33.6917C31.5811 32.375 32.0348 31.2912 32.9609 30.4392C33.8861 29.5866 35.1503 29.0728 36.7564 28.9005L36.7235 26.3989L38.7731 26.3674L38.8085 28.9023C40.3574 29.0739 41.5767 29.6015 42.4659 30.4878C43.3562 31.3748 43.7962 32.5392 43.791 33.9806L43.7653 34.0401L40.0908 34.0968C40.0799 33.2476 39.8585 32.5982 39.4265 32.149C39.0054 31.7112 38.4257 31.4927 37.6882 31.4927C37.6693 31.4927 37.6504 31.4932 37.6315 31.4932C36.8231 31.5058 36.2392 31.7056 35.8847 32.0946C35.5288 32.4815 35.3563 32.9981 35.3652 33.6453C35.3731 34.245 35.5706 34.721 35.9582 35.0735C36.3459 35.4266 37.0834 35.8002 38.1717 36.1951C40.0873 36.7267 41.5247 37.3933 42.4819 38.1921C43.4368 38.992 43.9261 40.101 43.945 41.5195C43.9644 42.8751 43.5113 43.968 42.5918 44.796Z" fill="#FECA55"/>
<path d="M33.7551 6.86898L33.4777 8.45165C33.3721 9.04787 33.4962 9.59429 33.8278 9.98966C34.3236 10.5801 35.187 10.7175 36.0078 10.2969L37.4998 9.53195L38.9903 10.2969C39.3124 10.4623 39.6351 10.5464 39.9504 10.5464C40.4362 10.5464 40.8693 10.3484 41.1708 9.98966C41.5027 9.59488 41.6274 9.04898 41.5227 8.45282L41.2441 6.86846L42.4251 5.74409C42.9858 5.21367 43.1929 4.55112 42.9938 3.92572C42.7936 3.29692 42.2351 2.87348 41.4621 2.76421L39.8033 2.52903L39.067 1.06823C38.7219 0.389631 38.1509 0 37.4998 0C36.8466 0 36.2753 0.390803 35.9334 1.07052L35.1964 2.52903L33.5374 2.76421C32.7647 2.87348 32.2068 3.29633 32.006 3.92513C31.8066 4.54995 32.0129 5.21256 32.5704 5.7407L33.7551 6.86898ZM36.7368 4.67815L37.5003 3.16702L38.2619 4.67815L39.9018 4.91046L38.7185 6.03763L39.0051 7.67004L37.5009 6.89763L35.9941 7.67004L36.2807 6.03705L35.0972 4.91046L36.7368 4.67815Z" fill="#FECA55"/>
<path d="M9.31244 38.6312L10.4932 37.5068C11.0542 36.9764 11.2616 36.3138 11.0622 35.6884C10.8619 35.0596 10.3034 34.6362 9.53075 34.5269L7.87168 34.2918L7.13531 32.831C6.79027 32.1524 6.21895 31.7627 5.56812 31.7627C4.915 31.7627 4.34368 32.1535 4.0018 32.8333L3.26478 34.2918L1.60578 34.5269C0.833078 34.6362 0.274881 35.0591 0.0743237 35.6879C-0.125062 36.3127 0.0812374 36.9753 0.63879 37.5034L1.8235 38.6317L1.54601 40.2144C1.44043 40.8106 1.56459 41.357 1.89615 41.7524C2.39166 42.3429 3.25535 42.4796 4.07615 42.0596L5.56841 41.2947L7.05838 42.0596C7.38081 42.225 7.70376 42.3091 8.01845 42.3091C8.50423 42.3091 8.93769 42.1111 9.2392 41.7524C9.57077 41.3576 9.6958 40.8117 9.5911 40.2155L9.31244 38.6312ZM7.07379 39.4328L5.56899 38.6604L4.06244 39.4328L4.34907 37.7998L3.16553 36.6732L4.80514 36.4409L5.5687 34.9297L6.33027 36.4409L7.97012 36.6732L6.78687 37.8004L7.07379 39.4328Z" fill="#FECA55"/>
<path d="M74.9266 35.6884C74.7263 35.0596 74.1678 34.6362 73.3948 34.5269L71.736 34.2918L70.9997 32.831C70.6546 32.1524 70.0836 31.7627 69.4325 31.7627C68.7791 31.7627 68.208 32.1535 67.8659 32.8333L67.1289 34.2918L65.4695 34.5269C64.6971 34.6362 64.1392 35.0596 63.9384 35.6879C63.7393 36.3127 63.9458 36.9753 64.5031 37.5034L65.6876 38.6317L65.4106 40.2138C65.3048 40.81 65.4289 41.3564 65.7602 41.7518C66.2557 42.344 67.1192 42.4814 67.9408 42.0596L69.4325 41.2947L70.923 42.0596C71.2452 42.225 71.5678 42.3091 71.8831 42.3091C72.3689 42.3091 72.802 42.1111 73.1035 41.7524C73.4354 41.3576 73.5601 40.8117 73.4554 40.2155L73.1768 38.6312L74.3578 37.5068C74.9185 36.9764 75.1256 36.3138 74.9266 35.6884ZM70.9378 39.4328L69.4336 38.6604L67.9265 39.4328L68.2131 37.7998L67.0299 36.6732L68.6692 36.4409L69.4331 34.9297L70.1946 36.4409L71.8345 36.6732L70.6512 37.8004L70.9378 39.4328Z" fill="#FECA55"/>
<path d="M41.4621 67.2178L39.8033 66.9826L39.067 65.5218C38.7219 64.8432 38.1509 64.4536 37.4998 64.4536C36.8466 64.4536 36.2753 64.8444 35.9334 65.5241L35.1964 66.9826L33.5374 67.2178C32.7647 67.3271 32.2068 67.7499 32.006 68.3787C31.8066 69.0035 32.0129 69.6661 32.5704 70.1943L33.7551 71.3226L33.4777 72.9052C33.3721 73.5015 33.4962 74.0479 33.8278 74.4432C34.3236 75.0337 35.187 75.1705 36.0078 74.7505L37.4998 73.9855L38.9903 74.7505C39.3124 74.9158 39.6351 75 39.9504 75C40.4362 75 40.8693 74.802 41.1708 74.4432C41.5027 74.0485 41.6274 73.5026 41.5227 72.9064L41.2441 71.322L42.4251 70.1977C42.9858 69.6673 43.1929 69.0047 42.9938 68.3793C42.7936 67.7505 42.2351 67.3271 41.4621 67.2178ZM39.0051 72.1236L37.5009 71.3512L35.9941 72.1236L36.2807 70.4906L35.0972 69.364L36.7368 69.1317L37.5003 67.6206L38.2619 69.1317L39.9018 69.364L38.7185 70.4912L39.0051 72.1236Z" fill="#FECA55"/>
<path d="M63.5109 56.4707L61.8069 56.5113L60.8845 55.1964C60.3695 54.46 59.7418 54.3501 59.4133 54.3501C58.8354 54.3501 58.1058 54.6997 57.7899 55.68L57.2755 57.2764L55.6808 57.7891C54.9444 58.0266 54.466 58.5347 54.3676 59.1836C54.2703 59.8279 54.5712 60.4476 55.1938 60.8842L56.5116 61.8077L56.4716 63.4385C56.4515 64.1555 56.7262 64.5921 56.9597 64.8318C57.2515 65.1322 57.6463 65.2976 58.0709 65.2976C58.4715 65.2976 58.8828 65.1477 59.2588 64.8639L60.5984 63.8574L62.153 64.3695C62.9639 64.6344 63.753 64.4141 64.1764 63.8282C64.3675 63.5644 64.6456 62.995 64.3669 62.1522L63.8565 60.5992L64.863 59.2602C65.3265 58.6445 65.4255 57.9573 65.1354 57.3748C64.8487 56.8003 64.2565 56.4707 63.5109 56.4707ZM61.2484 60.1689L61.7765 61.778L60.1692 61.2481L58.8451 62.2426L58.8851 60.6095L57.5273 59.6574L59.1375 59.1395L59.657 57.5276L60.6092 58.8849L62.2429 58.8454L61.2484 60.1689Z" fill="#FECA55"/>
<path d="M9.62072 15.3083L10.9382 16.2318L10.8988 17.8621C10.8781 18.5791 11.1525 19.0156 11.386 19.256C11.6781 19.557 12.0729 19.7223 12.4975 19.7223C12.8981 19.7223 13.3095 19.5724 13.686 19.2886L15.0255 18.2815L16.5788 18.7936C17.3913 19.058 18.1798 18.8394 18.6033 18.2529C18.7941 17.9891 19.0725 17.4198 18.7935 16.5758L18.2834 15.0239L19.2907 13.6844C19.7537 13.0681 19.8524 12.3809 19.5617 11.799C19.2748 11.2245 18.6825 10.8949 17.9363 10.8949L16.2337 10.9361L15.311 9.62054C14.7969 8.88471 14.1689 8.77426 13.8402 8.77426C13.2625 8.77426 12.5327 9.12389 12.2166 10.1046L11.7024 11.7011L10.1085 12.2138C9.37181 12.4501 8.89286 12.9577 8.79442 13.6072C8.69686 14.2515 8.99786 14.8717 9.62072 15.3083ZM13.5649 13.5642L14.0842 11.9529L15.0361 13.3096L16.6701 13.2701L15.6747 14.5937L16.2031 16.2021L14.5964 15.6723L13.272 16.6673L13.3117 15.0336L11.9548 14.0821L13.5649 13.5642Z" fill="#FECA55"/>
<path d="M19.3217 57.7908L17.7252 57.2764L17.2122 55.6816C16.8967 54.7003 16.166 54.3513 15.5875 54.3513C15.2593 54.3513 14.6322 54.4605 14.1175 55.1947L13.1939 56.5125L11.5628 56.4724L11.4908 56.4713C10.7449 56.4713 10.1526 56.8009 9.86594 57.3754C9.57526 57.9584 9.67487 58.6451 10.1378 59.2596L11.1443 60.5992L10.6319 62.1539C10.3561 63.0002 10.6356 63.5684 10.8267 63.8316C11.2519 64.417 12.0466 64.6327 12.8494 64.3678L14.4024 63.8573L15.7414 64.8639C16.1188 65.1482 16.5299 65.2982 16.9308 65.2982C17.355 65.2982 17.7499 65.1328 18.042 64.8318C18.2754 64.5921 18.5498 64.1555 18.5301 63.4437L18.4903 61.8077L19.8052 60.8853C20.429 60.4493 20.7314 59.8296 20.6344 59.1853C20.5368 58.5364 20.0585 58.0277 19.3217 57.7908ZM16.1168 60.6101L16.1563 62.2437L14.8327 61.2493L13.2214 61.7848L13.7536 60.1701L12.759 58.846L14.3921 58.886L15.3443 57.5282L15.8621 59.1383L17.4738 59.6579L16.1168 60.6101Z" fill="#FECA55"/>
<path d="M56.7181 15.0234L56.206 16.5764C55.9296 17.4228 56.2088 17.9915 56.3999 18.2547C56.8245 18.8413 57.6187 19.0575 58.4233 18.7915L59.9757 18.281L61.3158 19.2893C61.6928 19.5725 62.1037 19.7219 62.5037 19.7219C62.9282 19.7219 63.3225 19.5565 63.6149 19.2561C63.8484 19.0163 64.123 18.5803 64.1036 17.8673L64.0635 16.2314L65.3791 15.309C66.0027 14.873 66.3048 14.2538 66.2082 13.6095C66.1103 12.9601 65.632 12.452 64.895 12.2145L63.2985 11.7006L62.7858 10.1059C62.4711 9.12454 61.7404 8.77496 61.1613 8.77496C60.8334 8.77496 60.2057 8.88483 59.6913 9.61837L58.7678 10.9362L57.1375 10.8967L57.0631 10.8955C56.3175 10.8955 55.7258 11.2251 55.4392 11.7997C55.1485 12.3821 55.2481 13.0694 55.711 13.6839L56.7181 15.0234ZM59.966 13.3097L60.9175 11.9524L61.4354 13.5626L63.0467 14.0822L61.69 15.0338L61.7295 16.668L60.406 15.6729L58.7952 16.2085L59.3273 14.5943L58.3323 13.2702L59.966 13.3097Z" fill="#FECA55"/>
</svg>
