<svg width="24" height="20" viewBox="0 0 24 20" fill="none" xmlns="http://www.w3.org/2000/svg">
<path d="M11.4395 1.51502C6.97724 1.51502 1.51913 4.26197 1.51913 9.27834C1.51913 14.2939 6.97724 17.0409 11.4395 17.0409C12.759 17.0409 14.0278 16.8496 15.2818 16.4358C15.4354 16.386 15.5929 16.3868 15.7372 16.4304L21.6538 18.0302L19.5834 14.4907C19.4063 14.1897 19.4633 13.8156 19.698 13.5776C20.7391 12.3597 21.3598 10.8898 21.3598 9.27834C21.3598 4.26197 15.9017 1.51502 11.4395 1.51502ZM11.4395 0C16.7588 0 22.879 3.39791 22.879 9.27834C22.879 11.0702 22.2434 12.7626 21.1571 14.178L23.8967 18.8608C24.2304 19.4394 23.7048 20.1479 23.0459 19.9729L15.5376 17.943C14.2243 18.3498 12.8136 18.5559 11.4395 18.5559C6.11941 18.5559 0 15.1595 0 9.27834C0 3.39791 6.12019 0 11.4395 0Z" fill="#FECA55"/>
<ellipse cx="6.4001" cy="8.97567" rx="1.8" ry="1.79513" fill="#FECA55"/>
<ellipse cx="11.4001" cy="8.97567" rx="1.8" ry="1.79513" fill="#FECA55"/>
<ellipse cx="16.4001" cy="8.97567" rx="1.8" ry="1.79513" fill="#FECA55"/>
</svg>
