<svg width="20" height="20" viewBox="0 0 20 20" fill="none" xmlns="http://www.w3.org/2000/svg">
<path d="M10.0109 0C3.24128 0 0.136524 5.71516 0 10.0035C0 16.263 5.47996 20 10.0663 20C16.0409 20 19.9181 15.3964 20 9.99335C20 4.27505 15.5945 0 10.0109 0ZM9.61497 0.816286V2.80502C9.62706 3.32658 10.403 3.32658 10.4146 2.80502V0.816286C12.6553 0.911515 14.686 1.80526 16.2304 3.22215L14.9303 4.52273C14.5391 4.90076 15.1215 5.48014 15.4972 5.08671L16.795 3.78613C18.2112 5.33096 19.1039 7.36279 19.1993 9.60397H17.1737C16.6532 9.6407 16.6903 10.417 17.2119 10.4038H19.1992C19.1033 12.6445 18.2103 14.6759 16.7942 16.2209L15.4972 14.9211C15.0924 14.5162 14.5863 15.141 14.9303 15.4851L16.2304 16.7849C14.6859 18.2024 12.6552 19.0962 10.4146 19.1915V17.2028C10.4146 16.592 9.61495 16.5984 9.61495 17.2028V19.1915C7.3761 19.0954 5.3456 18.2019 3.80146 16.7856L5.09924 15.4851C5.54527 15.0389 4.9522 14.5049 4.53623 14.9211L3.23689 16.2201C1.82048 14.6752 0.926231 12.6441 0.830279 10.4038H2.81836C3.33958 10.3917 3.33958 9.61567 2.81836 9.60397H0.830279C0.925626 7.36317 1.81963 5.33163 3.23612 3.78689L4.53623 5.08671C4.91063 5.53088 5.54379 4.89664 5.09924 4.52273L3.80146 3.22137C5.3456 1.8057 7.3761 0.912316 9.61497 0.816286ZM6.41581 8.00343C5.31528 8.00343 4.41758 8.90145 4.41758 10.0023C4.41758 11.1033 5.31528 12.0044 6.41581 12.0044H8.4195C9.07297 12.0044 9.64986 11.6821 10.0148 11.1935C10.3797 11.6821 10.9566 12.0044 11.6101 12.0044H13.6138C14.7143 12.0044 15.612 11.1033 15.612 10.0023C15.612 8.90145 14.7143 8.00343 13.6138 8.00343H11.6101C10.9564 8.00343 10.3797 8.32481 10.0148 8.81268C9.64988 8.32481 9.07314 8.00343 8.4195 8.00343H6.41581ZM6.41581 8.80408H8.4195C9.12642 8.80408 9.61186 9.38934 9.61186 10.0023C9.61186 10.7227 9.02398 11.2037 8.4195 11.2037H6.41581C5.74443 11.2037 5.21796 10.674 5.21796 10.0023C5.21796 9.33075 5.74443 8.80408 6.41581 8.80408ZM13.6138 8.80408C14.2851 8.80106 14.8124 9.33075 14.8124 10.0023C14.8124 10.674 14.2851 11.2037 13.6138 11.2037C13.1992 11.2191 12.1042 11.2475 11.6101 11.2158C11.0661 11.1804 10.4644 10.8995 10.4177 10.0028C10.4177 9.16253 11.0208 8.81261 11.6101 8.81261L13.6138 8.80408Z" fill="#3512B1"/>
</svg>
