<svg width="44" height="38" viewBox="0 0 44 44" fill="none" xmlns="http://www.w3.org/2000/svg">
<path d="M22 36C14.2805 36 8 29.7198 8 22C8 14.2801 14.2805 8 22 8C29.7195 8 36 14.2805 36 22C36 29.7195 29.7195 36 22 36ZM22 9.8178C15.2828 9.8178 9.8178 15.2828 9.8178 22C9.8178 28.7175 15.2828 34.1822 22 34.1822C28.7175 34.1822 34.1822 28.7175 34.1822 22C34.1822 15.2828 28.7175 9.8178 22 9.8178Z" fill="#3512B1"/>
<path d="M28.1695 20.2326L22.9861 16.133C22.5497 15.7878 21.8429 15.7894 21.4088 16.1354L16.268 20.2326C15.0762 21.1895 16.8641 22.6249 18.0559 21.668L20.2824 19.8805C20.6537 19.5824 20.9547 19.6829 20.9547 20.1017V27.5475C20.9547 28.1083 21.5204 28.5625 22.2189 28.5625C22.9171 28.5625 23.4831 28.1083 23.4831 27.5475V20.1017C23.4831 19.6814 23.7824 19.581 24.1554 19.8805L26.3816 21.668C27.5734 22.6249 29.3613 21.1895 28.1695 20.2326Z" fill="#3512B1"/>
</svg>
