<svg width="27" height="20" viewBox="0 0 27 20" fill="none" xmlns="http://www.w3.org/2000/svg">
<path fill-rule="evenodd" clip-rule="evenodd" d="M13.5 0C19.6654 0 25.122 3.95189 26.8937 9.65636L27 10L26.8937 10.378C25.122 16.0825 19.6654 20 13.5 20C7.33465 20 1.91339 16.0825 0.106299 10.378L0 10L0.106299 9.65636C1.91339 3.95189 7.33465 0 13.5 0ZM13.5 3.33333C17.3268 3.33333 20.4095 6.32302 20.4095 10C20.4095 13.7113 17.3268 16.701 13.5 16.701C9.70866 16.701 6.62598 13.7113 6.62598 10C6.62598 6.32302 9.70866 3.33333 13.5 3.33333ZM17.7874 10.0687C17.7874 12.1649 16.7598 14.0206 15.1654 15.189C17.0787 14.1924 18.4252 12.3024 18.6732 10.0687C18.815 9.0378 17.7874 9.10653 17.7874 10.0687ZM17.8583 7.21649C18.248 7.21649 18.6024 7.52577 18.6024 7.93814C18.6024 8.31615 18.248 8.65979 17.8583 8.65979C17.4331 8.65979 17.1142 8.31615 17.1142 7.93814C17.1142 7.52577 17.4331 7.21649 17.8583 7.21649ZM13.5 1.23711C19.2402 1.23711 24.0945 4.94845 25.689 10C24.0945 15.0859 19.2402 18.7629 13.5 18.7629C7.75984 18.7629 2.90551 15.0859 1.34646 10C2.90551 4.94845 7.75984 1.23711 13.5 1.23711Z" fill="#FECA55"/>
</svg>
